<svg xmlns="http://www.w3.org/2000/svg" width="285" height="285" viewBox="0 0 285 285"><rect width="100%" height="100%" fill="#DDD"/><path fill="#999" d="M68.05 151.87h7.05q.76 0 1.2.43.45.42.45 1.13v2.81H57.9v-1.56q0-.47.2-1 .2-.52.64-.94l8.34-8.36q1.04-1.06 1.87-2.03.83-.97 1.38-1.92.55-.95.84-1.93.3-.97.3-2.06 0-.99-.29-1.74-.28-.75-.81-1.26-.52-.51-1.25-.77t-1.64-.26q-.84 0-1.55.24-.71.24-1.27.67-.55.42-.93.99-.38.57-.57 1.26-.32.87-.83 1.16-.52.28-1.48.13l-2.47-.44q.28-1.97 1.1-3.46.81-1.5 2.04-2.49 1.23-1 2.81-1.5 1.59-.51 3.41-.51 1.9 0 3.48.56t2.7 1.59q1.12 1.02 1.75 2.47.62 1.44.62 3.21 0 1.52-.44 2.81-.45 1.29-1.2 2.47-.75 1.18-1.76 2.28-1.01 1.1-2.11 2.24l-6.19 6.33q.89-.26 1.77-.41.89-.14 1.69-.14zm21.47 1.01q1.15 0 2.03-.34.87-.33 1.47-.92.6-.59.9-1.4.31-.82.31-1.77 0-2.26-1.26-3.42-1.25-1.16-3.45-1.16-2.21 0-3.46 1.16-1.26 1.16-1.26 3.42 0 .95.31 1.77.3.81.9 1.4.6.59 1.47.92.88.34 2.04.34zm0-20.88q-1.05 0-1.81.32t-1.26.86q-.51.54-.74 1.25-.24.7-.24 1.48 0 .82.2 1.59.2.77.67 1.36.48.6 1.26.96.78.37 1.92.37t1.91-.37q.78-.36 1.26-.96.47-.59.67-1.36.2-.77.2-1.59 0-.78-.24-1.48-.25-.71-.75-1.25-.49-.54-1.25-.86-.76-.32-1.8-.32zm4.63 9.91q2.51.82 3.71 2.5 1.19 1.68 1.19 4.12 0 1.82-.69 3.3-.69 1.48-1.95 2.53-1.25 1.04-3.01 1.61-1.76.57-3.88.57-2.13 0-3.89-.57-1.76-.57-3.01-1.61-1.26-1.05-1.95-2.53-.69-1.48-.69-3.3 0-2.44 1.19-4.12 1.2-1.68 3.71-2.5-2-.83-2.99-2.37-1-1.54-1-3.71 0-1.55.64-2.9.63-1.35 1.77-2.35 1.14-1 2.73-1.56t3.49-.56q1.9 0 3.48.56 1.59.56 2.73 1.56t1.78 2.35q.63 1.35.63 2.9 0 2.17-1 3.71-.99 1.54-2.99 2.37zm15.07-8.89l-.97 5.72q.91-.19 1.75-.27.83-.09 1.61-.09 2.17 0 3.82.65 1.65.64 2.78 1.78 1.12 1.14 1.69 2.67.57 1.53.57 3.3 0 2.18-.77 3.99-.77 1.8-2.14 3.09-1.37 1.28-3.24 1.98t-4.08.7q-1.29 0-2.45-.26-1.16-.27-2.17-.71-1.02-.45-1.88-1.03-.87-.58-1.55-1.23l1.44-1.99q.46-.65 1.2-.65.47 0 .97.31.49.3 1.13.66.64.36 1.5.67.86.3 2.08.3 1.29 0 2.28-.42.99-.41 1.64-1.17.66-.75.99-1.78.33-1.04.33-2.25 0-2.24-1.3-3.51-1.3-1.26-3.84-1.26-1.96 0-4.01.72l-2.93-.84 2.28-13.33h13.57v1.99q0 1.01-.63 1.64-.63.62-2.13.62h-7.54zm42.58 16.93l-2.49 2.45-6.44-6.44-6.5 6.48-2.49-2.45 6.5-6.52-6.2-6.19 2.47-2.47 6.2 6.19 6.15-6.15 2.51 2.47-6.17 6.17 6.46 6.46zm22.87 1.92h7.05q.76 0 1.21.43.45.42.45 1.13v2.81h-18.85v-1.56q0-.47.2-1 .2-.52.63-.94l8.34-8.36q1.05-1.06 1.88-2.03.82-.97 1.37-1.92.55-.95.85-1.93.29-.97.29-2.06 0-.99-.28-1.74-.29-.75-.81-1.26t-1.25-.77q-.73-.26-1.65-.26-.83 0-1.54.24-.72.24-1.27.67-.55.42-.93.99-.38.57-.57 1.26-.32.87-.84 1.16-.51.28-1.48.13l-2.47-.44q.29-1.97 1.1-3.46.82-1.5 2.05-2.49 1.22-1 2.81-1.5 1.59-.51 3.41-.51 1.9 0 3.48.56 1.57.56 2.69 1.59 1.13 1.02 1.75 2.47.63 1.44.63 3.21 0 1.52-.45 2.81-.44 1.29-1.19 2.47-.75 1.18-1.76 2.28-1.01 1.1-2.11 2.24l-6.19 6.33q.89-.26 1.77-.41.89-.14 1.68-.14zm21.47 1.01q1.16 0 2.04-.34.87-.33 1.47-.92.6-.59.9-1.4.31-.82.31-1.77 0-2.26-1.26-3.42-1.25-1.16-3.46-1.16-2.2 0-3.45 1.16-1.26 1.16-1.26 3.42 0 .95.31 1.77.3.81.9 1.4.6.59 1.47.92.87.34 2.03.34zm0-20.88q-1.04 0-1.8.32t-1.26.86q-.51.54-.75 1.25-.23.7-.23 1.48 0 .82.2 1.59.2.77.67 1.36.48.6 1.25.96.78.37 1.92.37t1.92-.37q.78-.36 1.26-.96.47-.59.67-1.36.2-.77.2-1.59 0-.78-.25-1.48-.24-.71-.74-1.25-.49-.54-1.25-.86-.76-.32-1.81-.32zm4.64 9.91q2.51.82 3.71 2.5 1.19 1.68 1.19 4.12 0 1.82-.69 3.3-.7 1.48-1.95 2.53-1.25 1.04-3.01 1.61-1.76.57-3.89.57-2.12 0-3.88-.57-1.76-.57-3.01-1.61-1.26-1.05-1.95-2.53-.69-1.48-.69-3.3 0-2.44 1.19-4.12 1.2-1.68 3.71-2.5-2-.83-2.99-2.37-1-1.54-1-3.71 0-1.55.63-2.9.64-1.35 1.78-2.35 1.14-1 2.73-1.56 1.58-.56 3.48-.56t3.49.56q1.59.56 2.73 1.56t1.77 2.35q.64 1.35.64 2.9 0 2.17-1 3.71t-2.99 2.37zm15.07-8.89l-.97 5.72q.91-.19 1.75-.27.83-.09 1.61-.09 2.17 0 3.82.65 1.65.64 2.77 1.78 1.13 1.14 1.7 2.67.57 1.53.57 3.3 0 2.18-.77 3.99-.77 1.8-2.14 3.09-1.37 1.28-3.24 1.98t-4.08.7q-1.29 0-2.45-.26-1.16-.27-2.17-.71-1.02-.45-1.88-1.03-.87-.58-1.55-1.23l1.44-1.99q.46-.65 1.2-.65.47 0 .97.31.49.3 1.13.66.63.36 1.5.67.86.3 2.08.3 1.29 0 2.28-.42.99-.41 1.64-1.17.66-.75.99-1.78.33-1.04.33-2.25 0-2.24-1.3-3.51-1.3-1.26-3.85-1.26-1.95 0-4 .72l-2.93-.84 2.28-13.33h13.56v1.99q0 1.01-.62 1.64-.63.62-2.13.62h-7.54z"/></svg>