<svg xmlns="http://www.w3.org/2000/svg" width="35" height="35" viewBox="0 0 35 35"><rect width="100%" height="100%" fill="#DDD"/><path fill="#999" d="M6.56 16.46l-.45-.08q.05-.36.2-.64.15-.27.38-.46.22-.18.51-.27.3-.1.63-.1.35 0 .63.1.29.1.49.28.19.18.3.41.11.24.11.52 0 .24-.06.42-.05.19-.15.32-.1.14-.25.24-.15.09-.34.15.45.15.68.44.22.29.22.74 0 .38-.14.67-.14.29-.38.49-.24.19-.55.29-.31.11-.66.11-.38 0-.67-.09-.28-.09-.49-.26-.21-.17-.36-.42-.15-.25-.25-.57l.38-.16q.15-.07.28-.04.13.03.19.15l.14.24q.08.12.18.21.11.09.25.15t.34.06q.22 0 .38-.07.17-.08.28-.19.11-.12.16-.26.06-.14.06-.28 0-.19-.04-.33-.04-.15-.16-.26-.13-.1-.36-.16-.23-.06-.61-.06v-.62q.32 0 .53-.06.21-.05.33-.15.13-.1.18-.24.04-.14.04-.31 0-.36-.19-.54-.2-.19-.54-.19-.15 0-.28.04-.13.05-.23.13-.11.08-.18.18-.07.11-.1.23-.06.16-.16.22-.09.05-.27.02zm4.83-.71l-.18 1.06q.17-.04.32-.05.16-.02.3-.02.4 0 .7.12.31.12.51.33.21.21.32.49.1.28.1.61 0 .4-.14.73-.14.33-.4.57-.25.24-.59.37-.35.13-.75.13-.24 0-.45-.05-.22-.05-.4-.13-.19-.09-.35-.19-.16-.11-.29-.23l.27-.37q.08-.12.22-.12.09 0 .18.06t.21.12q.11.07.27.13.16.05.39.05t.42-.08q.18-.07.3-.21.12-.14.18-.33t.06-.41q0-.42-.24-.65-.24-.23-.71-.23-.36 0-.73.13l-.54-.15.42-2.46h2.5v.37q0 .18-.12.3-.12.11-.39.11h-1.39zm7.84 3.12l-.46.45-1.18-1.18-1.2 1.19-.46-.45 1.2-1.2-1.14-1.14.45-.46 1.14 1.14 1.14-1.13.46.45-1.14 1.14 1.19 1.19zm2.91-2.41l-.45-.08q.05-.36.2-.64.15-.27.38-.46.22-.18.52-.27.29-.1.62-.1.35 0 .64.1.28.1.48.28.2.18.3.41.11.24.11.52 0 .24-.05.42-.06.19-.16.32-.1.14-.25.24-.15.09-.34.15.45.15.68.44.22.29.22.74 0 .38-.14.67-.14.29-.38.49-.23.19-.55.29-.31.11-.66.11-.38 0-.67-.09-.28-.09-.49-.26-.21-.17-.36-.42-.14-.25-.25-.57l.38-.16q.15-.07.29-.04.13.03.19.15t.13.24q.08.12.18.21.11.09.25.15t.34.06q.22 0 .38-.07.17-.08.28-.19.11-.12.16-.26.06-.14.06-.28 0-.19-.04-.33-.04-.15-.16-.26-.12-.1-.35-.16-.23-.06-.62-.06v-.62q.32 0 .53-.06.21-.05.33-.15.13-.1.18-.24.05-.14.05-.31 0-.36-.2-.54-.2-.19-.53-.19-.16 0-.29.04-.13.05-.23.13t-.17.18q-.07.11-.11.23-.06.16-.15.22-.1.05-.28.02zm4.83-.71l-.18 1.06q.17-.04.32-.05.16-.02.3-.02.4 0 .71.12.3.12.51.33.2.21.31.49.1.28.1.61 0 .4-.14.73-.14.33-.39.57-.26.24-.6.37-.34.13-.75.13-.24 0-.45-.05-.22-.05-.4-.13-.19-.09-.35-.19-.16-.11-.28-.23l.26-.37q.09-.12.22-.12.09 0 .18.06t.21.12q.12.07.28.13.15.05.38.05.24 0 .42-.08.18-.07.3-.21.12-.14.18-.33t.06-.41q0-.42-.24-.65-.24-.23-.7-.23-.36 0-.74.13l-.54-.15.42-2.46h2.5v.37q0 .18-.12.3-.11.11-.39.11h-1.39z"/></svg>