<svg xmlns="http://www.w3.org/2000/svg" width="585" height="295" viewBox="0 0 585 295"><rect width="100%" height="100%" fill="#DDD"/><path fill="#999" d="M133.495 128.04l-1.99 11.74q1.87-.39 3.59-.56 1.71-.18 3.31-.18 4.45 0 7.84 1.33 3.39 1.32 5.7 3.66 2.3 2.34 3.47 5.48 1.17 3.14 1.17 6.77 0 4.48-1.58 8.19-1.58 3.7-4.39 6.34-2.81 2.63-6.65 4.07-3.84 1.44-8.37 1.44-2.65 0-5.03-.54-2.38-.55-4.46-1.46-2.09-.92-3.86-2.11-1.78-1.19-3.18-2.52l2.96-4.09q.94-1.33 2.46-1.33.97 0 1.99.63 1.01.62 2.32 1.36 1.31.74 3.08 1.37 1.78.62 4.27.62 2.65 0 4.68-.86 2.03-.85 3.37-2.4 1.35-1.54 2.03-3.66.68-2.13.68-4.62 0-4.6-2.67-7.2-2.67-2.59-7.89-2.59-4.02 0-8.23 1.48l-6.01-1.72 4.68-27.37h27.85v4.09q0 2.07-1.29 3.35-1.29 1.29-4.37 1.29h-15.48zm50.04 40.76q2.37 0 4.17-.69 1.79-.68 3.02-1.89t1.85-2.88q.63-1.68.63-3.63 0-4.64-2.58-7.02-2.57-2.38-7.09-2.38-4.53 0-7.1 2.38-2.58 2.38-2.58 7.02 0 1.95.63 3.63.62 1.67 1.85 2.88t3.02 1.89q1.8.69 4.18.69zm0-42.86q-2.15 0-3.71.66t-2.59 1.77q-1.04 1.11-1.52 2.56-.49 1.44-.49 3.04 0 1.68.41 3.26.41 1.58 1.38 2.8.98 1.23 2.58 1.97 1.6.75 3.94.75t3.93-.75q1.6-.74 2.58-1.97.97-1.22 1.38-2.8.41-1.58.41-3.26 0-1.6-.5-3.04-.51-1.45-1.53-2.56-1.01-1.11-2.57-1.77-1.56-.66-3.7-.66zm9.51 20.35q5.15 1.68 7.61 5.13 2.45 3.45 2.45 8.45 0 3.74-1.42 6.78t-4 5.19q-2.57 2.14-6.18 3.31t-7.97 1.17q-4.37 0-7.98-1.17-3.61-1.17-6.18-3.31-2.58-2.15-4-5.19-1.42-3.04-1.42-6.78 0-5 2.45-8.45 2.46-3.45 7.61-5.13-4.1-1.71-6.14-4.87-2.05-3.16-2.05-7.61 0-3.19 1.31-5.96 1.3-2.77 3.64-4.82 2.34-2.05 5.6-3.2 3.26-1.15 7.16-1.15 3.9 0 7.15 1.15 3.26 1.15 5.6 3.2 2.34 2.05 3.65 4.82 1.3 2.77 1.3 5.96 0 4.45-2.05 7.61-2.04 3.16-6.14 4.87zm30.93-18.25l-1.99 11.74q1.87-.39 3.59-.56 1.71-.18 3.31-.18 4.45 0 7.84 1.33 3.4 1.32 5.7 3.66 2.3 2.34 3.47 5.48 1.17 3.14 1.17 6.77 0 4.48-1.58 8.19-1.58 3.7-4.39 6.34-2.81 2.63-6.65 4.07-3.84 1.44-8.36 1.44-2.66 0-5.04-.54-2.37-.55-4.46-1.46-2.09-.92-3.86-2.11-1.78-1.19-3.18-2.52l2.96-4.09q.94-1.33 2.46-1.33.98 0 1.99.63 1.01.62 2.32 1.36 1.31.74 3.08 1.37 1.78.62 4.27.62 2.65 0 4.68-.86 2.03-.85 3.37-2.4 1.35-1.54 2.03-3.66.69-2.13.69-4.62 0-4.6-2.68-7.2-2.67-2.59-7.89-2.59-4.02 0-8.23 1.48l-6.01-1.72 4.68-27.37h27.85v4.09q0 2.07-1.29 3.35-1.29 1.29-4.37 1.29h-15.48zm87.4 34.75l-5.11 5.03-13.22-13.22-13.34 13.3-5.11-5.03 13.34-13.38-12.71-12.71 5.07-5.07 12.71 12.71 12.64-12.63 5.14 5.07-12.67 12.67 13.26 13.26zm46.95 3.94h14.47q1.56 0 2.48.88.92.88.92 2.32v5.77h-38.69v-3.2q0-.97.41-2.05.41-1.07 1.3-1.93l17.13-17.16q2.14-2.18 3.84-4.17 1.69-1.99 2.82-3.94 1.14-1.95 1.74-3.96.6-2 .6-4.23 0-2.03-.58-3.57-.59-1.54-1.66-2.59-1.07-1.05-2.57-1.58-1.5-.53-3.38-.53-1.71 0-3.17.49-1.47.49-2.6 1.37-1.13.87-1.91 2.04t-1.17 2.58q-.66 1.79-1.71 2.38-1.06.58-3.05.27l-5.07-.9q.59-4.05 2.27-7.11 1.67-3.07 4.19-5.11 2.51-2.05 5.77-3.08 3.26-1.04 7-1.04 3.9 0 7.14 1.15 3.23 1.15 5.54 3.26 2.3 2.1 3.58 5.07 1.29 2.96 1.29 6.59 0 3.12-.92 5.77-.91 2.65-2.45 5.07-1.54 2.42-3.61 4.68t-4.33 4.6l-12.71 12.99q1.83-.54 3.64-.84 1.82-.29 3.45-.29zm34.32-30.5q0 4.72 2.44 7.2 2.44 2.47 6.92 2.47 2.34 0 4.18-.74 1.83-.74 3.08-2.02 1.25-1.29 1.89-3.05.64-1.75.64-3.78 0-2.3-.7-4.11-.7-1.82-1.99-3.07-1.28-1.24-3.06-1.91-1.77-.66-3.88-.66-2.18 0-3.94.72-1.75.72-3 2.01-1.25 1.29-1.91 3.06-.67 1.78-.67 3.88zm-4.71 39.47l17.51-21.88q.66-.82 1.24-1.6.59-.78 1.14-1.56-1.95 1.25-4.29 1.89-2.34.65-4.92.65-2.92 0-5.73-1.02-2.81-1.01-4.99-3.06-2.19-2.05-3.53-5.07-1.35-3.02-1.35-7.08 0-3.78 1.41-7.1 1.4-3.31 3.93-5.81 2.54-2.49 6.09-3.94 3.55-1.44 7.84-1.44 4.33 0 7.78 1.37 3.45 1.36 5.89 3.82 2.43 2.46 3.74 5.89 1.31 3.43 1.31 7.53 0 2.61-.45 4.95-.45 2.34-1.27 4.5-.82 2.17-1.99 4.23-1.17 2.07-2.61 4.1l-12.91 18.41q-.66.93-1.99 1.58-1.32.64-3 .64h-8.85zm54.91-47.66l-1.99 11.74q1.87-.39 3.59-.56 1.71-.18 3.31-.18 4.45 0 7.84 1.33 3.39 1.32 5.69 3.66 2.31 2.34 3.48 5.48 1.17 3.14 1.17 6.77 0 4.48-1.58 8.19-1.58 3.7-4.39 6.34-2.81 2.63-6.65 4.07-3.84 1.44-8.37 1.44-2.65 0-5.03-.54-2.38-.55-4.46-1.46-2.09-.92-3.86-2.11-1.78-1.19-3.18-2.52l2.96-4.09q.94-1.33 2.46-1.33.97 0 1.99.63 1.01.62 2.32 1.36 1.3.74 3.08 1.37 1.77.62 4.27.62 2.65 0 4.68-.86 2.03-.85 3.37-2.4 1.35-1.54 2.03-3.66.68-2.13.68-4.62 0-4.6-2.67-7.2-2.67-2.59-7.9-2.59-4.01 0-8.22 1.48l-6.01-1.72 4.68-27.37h27.85v4.09q0 2.07-1.29 3.35-1.29 1.29-4.37 1.29h-15.48z"/></svg>