<svg xmlns="http://www.w3.org/2000/svg" width="590" height="300" viewBox="0 0 590 300"><rect width="100%" height="100%" fill="#DDD"/><path fill="#999" d="M134.81 130.54l-1.99 11.74q1.87-.39 3.59-.56 1.71-.18 3.31-.18 4.45 0 7.84 1.33 3.39 1.32 5.7 3.66 2.3 2.34 3.47 5.48 1.17 3.14 1.17 6.77 0 4.48-1.58 8.19-1.58 3.7-4.39 6.34-2.81 2.63-6.65 4.07-3.84 1.44-8.37 1.44-2.65 0-5.03-.54-2.38-.55-4.46-1.46-2.09-.92-3.86-2.11-1.78-1.19-3.18-2.52l2.96-4.09q.94-1.33 2.46-1.33.97 0 1.99.63 1.01.62 2.32 1.36 1.31.74 3.08 1.37 1.78.62 4.27.62 2.65 0 4.68-.86 2.03-.85 3.37-2.4 1.35-1.54 2.03-3.66.68-2.13.68-4.62 0-4.6-2.67-7.2-2.67-2.59-7.89-2.59-4.02 0-8.23 1.48l-6.01-1.72 4.68-27.37h27.85v4.09q0 2.07-1.29 3.35-1.29 1.29-4.37 1.29h-15.48zm40.29 8.19q0 4.72 2.43 7.2 2.44 2.47 6.93 2.47 2.34 0 4.17-.74t3.08-2.02q1.25-1.29 1.89-3.05.65-1.75.65-3.78 0-2.3-.71-4.11-.7-1.82-1.99-3.07-1.28-1.24-3.06-1.91-1.77-.66-3.88-.66-2.18 0-3.94.72-1.75.72-3 2.01-1.25 1.29-1.91 3.06-.66 1.78-.66 3.88zm-4.72 39.47l17.51-21.88q.66-.82 1.25-1.6.58-.78 1.13-1.56-1.95 1.25-4.29 1.89-2.34.65-4.92.65-2.92 0-5.73-1.02-2.81-1.01-4.99-3.06-2.19-2.05-3.53-5.07-1.35-3.02-1.35-7.08 0-3.78 1.41-7.1 1.4-3.31 3.94-5.81 2.53-2.49 6.08-3.94 3.55-1.44 7.84-1.44 4.33 0 7.78 1.37 3.45 1.36 5.89 3.82 2.44 2.46 3.74 5.89 1.31 3.43 1.31 7.53 0 2.61-.45 4.95-.45 2.34-1.27 4.5-.82 2.17-1.99 4.23-1.17 2.07-2.61 4.1l-12.91 18.41q-.66.93-1.99 1.58-1.32.64-3 .64h-8.85zm80.38-28.2q0 7.37-1.58 12.81t-4.37 8.99q-2.79 3.55-6.59 5.29-3.8 1.73-8.21 1.73-4.41 0-8.17-1.73-3.77-1.74-6.53-5.29-2.77-3.55-4.33-8.99T209.42 150q0-7.41 1.56-12.83t4.33-8.97q2.76-3.55 6.53-5.28 3.76-1.74 8.17-1.74t8.21 1.74q3.8 1.73 6.59 5.28 2.79 3.55 4.37 8.97 1.58 5.42 1.58 12.83zm-9.95 0q0-6.12-.9-10.14-.89-4.01-2.39-6.39-1.51-2.38-3.46-3.34-1.95-.95-4.05-.95-2.07 0-4 .95-1.93.96-3.41 3.34-1.48 2.38-2.36 6.39-.88 4.02-.88 10.14 0 6.13.88 10.14.88 4.02 2.36 6.4 1.48 2.38 3.41 3.33 1.93.96 4 .96 2.1 0 4.05-.96 1.95-.95 3.46-3.33 1.5-2.38 2.39-6.4.9-4.01.9-10.14zm71.88 15.29l-5.11 5.03-13.22-13.22-13.34 13.3-5.11-5.03 13.34-13.38-12.71-12.71 5.07-5.07 12.71 12.71 12.64-12.63 5.14 5.07-12.67 12.67 13.26 13.26zm32.45-26.87l-5.07-.9q.58-4.05 2.26-7.11 1.68-3.07 4.19-5.11 2.52-2.05 5.77-3.08 3.26-1.04 7-1.04 3.9 0 7.04 1.11t5.37 3.08q2.22 1.97 3.41 4.63 1.19 2.65 1.19 5.73 0 2.69-.61 4.74-.6 2.04-1.73 3.57-1.13 1.52-2.81 2.57-1.68 1.05-3.78 1.75 5.07 1.6 7.56 4.88 2.5 3.28 2.5 8.23 0 4.21-1.56 7.45t-4.21 5.44q-2.66 2.2-6.15 3.33t-7.39 1.13q-4.25 0-7.41-.97-3.16-.98-5.5-2.89-2.34-1.91-3.97-4.68-1.64-2.77-2.81-6.39l4.25-1.76q1.68-.7 3.14-.37 1.46.33 2.12 1.58.71 1.37 1.54 2.69.84 1.33 2.01 2.36 1.17 1.03 2.75 1.68 1.58.64 3.77.64 2.45 0 4.29-.8 1.83-.8 3.06-2.08 1.23-1.29 1.83-2.87.61-1.58.61-3.18 0-2.03-.43-3.68-.43-1.66-1.8-2.83-1.36-1.17-3.92-1.84-2.55-.66-6.84-.66v-6.86q3.55-.04 5.89-.66 2.34-.63 3.72-1.74 1.39-1.11 1.93-2.67.55-1.56.55-3.43 0-3.98-2.22-6.05-2.23-2.07-5.93-2.07-1.72 0-3.16.49-1.44.49-2.6 1.37-1.15.87-1.93 2.04t-1.17 2.58q-.66 1.79-1.73 2.38-1.07.58-3.02.27zM424.38 150q0 7.37-1.58 12.81-1.57 5.44-4.36 8.99t-6.59 5.29q-3.81 1.73-8.21 1.73-4.41 0-8.17-1.73-3.77-1.74-6.54-5.29t-4.33-8.99q-1.56-5.44-1.56-12.81 0-7.41 1.56-12.83t4.33-8.97q2.77-3.55 6.54-5.28 3.76-1.74 8.17-1.74 4.4 0 8.21 1.74 3.8 1.73 6.59 5.28 2.79 3.55 4.36 8.97 1.58 5.42 1.58 12.83zm-9.94 0q0-6.12-.9-10.14-.89-4.01-2.4-6.39-1.5-2.38-3.45-3.34-1.95-.95-4.05-.95-2.07 0-4 .95-1.93.96-3.41 3.34-1.49 2.38-2.36 6.39-.88 4.02-.88 10.14 0 6.13.88 10.14.87 4.02 2.36 6.4 1.48 2.38 3.41 3.33 1.93.96 4 .96 2.1 0 4.05-.96 1.95-.95 3.45-3.33 1.51-2.38 2.4-6.4.9-4.01.9-10.14zm55.18 0q0 7.37-1.58 12.81-1.57 5.44-4.36 8.99t-6.59 5.29q-3.81 1.73-8.21 1.73-4.41 0-8.17-1.73-3.77-1.74-6.54-5.29t-4.33-8.99q-1.56-5.44-1.56-12.81 0-7.41 1.56-12.83t4.33-8.97q2.77-3.55 6.54-5.28 3.76-1.74 8.17-1.74 4.4 0 8.21 1.74 3.8 1.73 6.59 5.28 2.79 3.55 4.36 8.97 1.58 5.42 1.58 12.83zm-9.94 0q0-6.12-.9-10.14-.89-4.01-2.4-6.39-1.5-2.38-3.45-3.34-1.95-.95-4.05-.95-2.07 0-4 .95-1.93.96-3.41 3.34-1.49 2.38-2.36 6.39-.88 4.02-.88 10.14 0 6.13.88 10.14.87 4.02 2.36 6.4 1.48 2.38 3.41 3.33 1.93.96 4 .96 2.1 0 4.05-.96 1.95-.95 3.45-3.33 1.51-2.38 2.4-6.4.9-4.01.9-10.14z"/></svg>