<svg xmlns="http://www.w3.org/2000/svg" width="650" height="480" viewBox="0 0 650 480"><rect width="100%" height="100%" fill="#DDD"/><path fill="#999" d="M169.68 208.91l-18.44 22.58-2.15 2.66q1.8-.9 3.89-1.39 2.08-.5 4.49-.5 3.53 0 6.86 1.16 3.33 1.16 5.87 3.51 2.54 2.34 4.09 5.82 1.54 3.49 1.54 8.13 0 4.34-1.59 8.15-1.59 3.8-4.47 6.64t-6.94 4.47q-4.07 1.64-8.97 1.64-4.99 0-8.94-1.59-3.96-1.59-6.75-4.45-2.8-2.86-4.28-6.88-1.49-4.02-1.49-8.93 0-4.38 1.79-9 1.78-4.63 5.52-9.62l14.84-19.9q.77-1.04 2.26-1.77 1.48-.73 3.41-.73h9.46zm-16.03 54.18q2.53 0 4.66-.86 2.13-.86 3.66-2.41 1.52-1.54 2.38-3.63.86-2.09.86-4.54 0-2.66-.81-4.79-.82-2.13-2.33-3.61-1.5-1.49-3.61-2.26-2.11-.77-4.64-.77-2.54 0-4.6.86-2.07.86-3.53 2.38-1.46 1.53-2.28 3.61-.82 2.09-.82 4.5 0 2.58.71 4.71.71 2.12 2.11 3.63 1.4 1.5 3.46 2.34 2.07.84 4.78.84zm44.67-44.55l-2.19 12.95q2.06-.43 3.96-.63 1.89-.19 3.65-.19 4.9 0 8.64 1.46t6.28 4.04q2.54 2.58 3.83 6.05 1.29 3.46 1.29 7.46 0 4.94-1.74 9.03-1.74 4.08-4.84 6.98-3.1 2.91-7.33 4.5-4.24 1.59-9.23 1.59-2.92 0-5.54-.6-2.63-.61-4.93-1.62-2.3-1.01-4.25-2.32-1.96-1.31-3.51-2.77l3.27-4.52q1.03-1.46 2.71-1.46 1.07 0 2.19.69 1.12.69 2.56 1.5 1.44.82 3.4 1.51 1.95.69 4.71.69 2.92 0 5.16-.95 2.23-.95 3.72-2.64 1.48-1.7 2.23-4.05.75-2.34.75-5.09 0-5.08-2.94-7.93-2.95-2.86-8.71-2.86-4.43 0-9.07 1.63l-6.62-1.89 5.16-30.19h30.7v4.52q0 2.28-1.42 3.69-1.42 1.42-4.82 1.42h-17.07zM276.28 240q0 8.13-1.74 14.13-1.74 5.99-4.82 9.91-3.07 3.91-7.26 5.82-4.2 1.92-9.05 1.92-4.86 0-9.01-1.92-4.15-1.91-7.21-5.82-3.05-3.92-4.77-9.91-1.72-6-1.72-14.13 0-8.17 1.72-14.15 1.72-5.97 4.77-9.89 3.06-3.91 7.21-5.82 4.15-1.92 9.01-1.92 4.85 0 9.05 1.92 4.19 1.91 7.26 5.82 3.08 3.92 4.82 9.89 1.74 5.98 1.74 14.15zm-10.96 0q0-6.75-.99-11.18t-2.65-7.05q-1.65-2.62-3.8-3.68-2.15-1.05-4.47-1.05-2.28 0-4.41 1.05-2.13 1.06-3.76 3.68-1.64 2.62-2.61 7.05-.96 4.43-.96 11.18t.96 11.18q.97 4.43 2.61 7.05 1.63 2.63 3.76 3.68 2.13 1.05 4.41 1.05 2.32 0 4.47-1.05t3.8-3.68q1.66-2.62 2.65-7.05t.99-11.18zm79.25 16.86l-5.64 5.54-14.57-14.57-14.71 14.66-5.63-5.55 14.7-14.75-14.02-14.01 5.59-5.59 14.02 14.01 13.93-13.93 5.68 5.59-13.97 13.98 14.62 14.62zm37.23-9.21h18.92v-20.33q0-2.89.39-6.37l-19.31 26.7zm28.17 0h7.83v6.15q0 .86-.56 1.49-.56.62-1.59.62h-5.68v15.18h-9.25v-15.18h-26.23q-1.07 0-1.89-.67-.82-.66-1.03-1.65l-1.12-5.38 29.46-39.34h10.06v38.78zm34.96 15.83q2.62 0 4.6-.75 1.98-.76 3.33-2.09 1.36-1.33 2.04-3.18.69-1.85.69-4 0-5.12-2.84-7.74-2.83-2.62-7.82-2.62t-7.83 2.62q-2.84 2.62-2.84 7.74 0 2.15.69 4t2.04 3.18q1.36 1.33 3.34 2.09 1.97.75 4.6.75zm0-47.26q-2.37 0-4.09.73-1.72.73-2.86 1.96-1.14 1.22-1.67 2.82-.54 1.59-.54 3.35 0 1.85.45 3.59.45 1.74 1.53 3.1 1.07 1.35 2.83 2.17 1.77.81 4.35.81 2.58 0 4.34-.81 1.76-.82 2.84-2.17 1.07-1.36 1.53-3.1.45-1.74.45-3.59 0-1.76-.56-3.35-.56-1.6-1.68-2.82-1.12-1.23-2.84-1.96-1.72-.73-4.08-.73zm10.49 22.45q5.68 1.85 8.38 5.65 2.71 3.81 2.71 9.31 0 4.13-1.57 7.48-1.57 3.36-4.4 5.72-2.84 2.37-6.82 3.66-3.98 1.29-8.79 1.29-4.82 0-8.8-1.29-3.97-1.29-6.81-3.66-2.84-2.36-4.41-5.72-1.57-3.35-1.57-7.48 0-5.5 2.71-9.31 2.71-3.8 8.39-5.65-4.52-1.89-6.78-5.38-2.25-3.48-2.25-8.38 0-3.53 1.44-6.58 1.44-3.05 4.02-5.31 2.58-2.26 6.17-3.53t7.89-1.27q4.3 0 7.89 1.27t6.17 3.53q2.58 2.26 4.02 5.31 1.44 3.05 1.44 6.58 0 4.9-2.26 8.38-2.26 3.49-6.77 5.38zM517.6 240q0 8.13-1.74 14.13-1.75 5.99-4.82 9.91-3.07 3.91-7.27 5.82-4.19 1.92-9.05 1.92t-9.01-1.92q-4.15-1.91-7.2-5.82-3.05-3.92-4.77-9.91-1.72-6-1.72-14.13 0-8.17 1.72-14.15 1.72-5.97 4.77-9.89 3.05-3.91 7.2-5.82 4.15-1.92 9.01-1.92 4.86 0 9.05 1.92 4.2 1.91 7.27 5.82 3.07 3.92 4.82 9.89 1.74 5.98 1.74 14.15zm-10.97 0q0-6.75-.99-11.18t-2.64-7.05q-1.66-2.62-3.81-3.68-2.15-1.05-4.47-1.05-2.28 0-4.41 1.05-2.12 1.06-3.76 3.68-1.63 2.62-2.6 7.05-.97 4.43-.97 11.18t.97 11.18q.97 4.43 2.6 7.05 1.64 2.63 3.76 3.68 2.13 1.05 4.41 1.05 2.32 0 4.47-1.05t3.81-3.68q1.65-2.62 2.64-7.05.99-4.43.99-11.18z"/></svg>