<svg width="50" height="50" viewBox="0 0 50 50" fill="none" xmlns="http://www.w3.org/2000/svg"><rect width="50" height="50" rx="25" fill="#F5F8FA"/><g opacity=".24"><path fill-rule="evenodd" clip-rule="evenodd" d="M35 31h-6 6z" fill="url(#a)"/><path fill-rule="evenodd" clip-rule="evenodd" d="M32 34v-6 6z" fill="url(#b)"/><path d="M29.5 16.222h-9c-2.485 0-4.5 1.99-4.5 4.445v2.222h18v-2.222c0-2.455-2.015-4.445-4.5-4.445z" fill="url(#c)"/></g><path d="M35 31h-6m3 3v-6M20.5 16.222h9m-9 0c-2.485 0-4.5 1.99-4.5 4.445v2.222m4.5-6.667V14m0 2.222v2.222m9-2.222c2.485 0 4.5 1.99 4.5 4.445v2.222H16m13.5-6.667V14m0 2.222v2.222M16 22.89v6.667C16 32.01 18.015 34 20.5 34H25" stroke="url(#d)" stroke-width="2" stroke-linecap="round" stroke-linejoin="round"/><defs><linearGradient id="a" x1="34.905" y1="14.085" x2="14.53" y2="33.796" gradientUnits="userSpaceOnUse"><stop stop-color="#37D4EE"/><stop offset=".75" stop-color="#236EDE"/></linearGradient><linearGradient id="b" x1="34.905" y1="14.085" x2="14.53" y2="33.796" gradientUnits="userSpaceOnUse"><stop stop-color="#37D4EE"/><stop offset=".75" stop-color="#236EDE"/></linearGradient><linearGradient id="c" x1="34.905" y1="14.085" x2="14.53" y2="33.796" gradientUnits="userSpaceOnUse"><stop stop-color="#37D4EE"/><stop offset=".75" stop-color="#236EDE"/></linearGradient><linearGradient id="d" x1="34.905" y1="14.085" x2="14.53" y2="33.796" gradientUnits="userSpaceOnUse"><stop stop-color="#37D4EE"/><stop offset=".75" stop-color="#236EDE"/></linearGradient></defs></svg>