<svg width="50" height="51" viewBox="0 0 50 51" fill="none" xmlns="http://www.w3.org/2000/svg"><rect y=".5" width="50" height="50" rx="25" fill="#F5F8FA"/><g opacity=".24"><path d="M23 17.5a3 3 0 1 1-6 0 3 3 0 0 1 6 0z" fill="url(#a)"/><path d="M33 31.5a3 3 0 1 0-6 0 3 3 0 0 0 6 0z" fill="url(#b)"/></g><path d="M20 24.5v10m10-10v-10m-7 3a3 3 0 1 1-6 0 3 3 0 0 1 6 0zm10 14a3 3 0 1 0-6 0 3 3 0 0 0 6 0z" stroke="url(#c)" stroke-width="2" stroke-linecap="round" stroke-linejoin="round"/><defs><linearGradient id="a" x1="32.92" y1="14.585" x2="12.955" y2="30.85" gradientUnits="userSpaceOnUse"><stop stop-color="#37D4EE"/><stop offset=".75" stop-color="#236EDE"/></linearGradient><linearGradient id="b" x1="32.92" y1="14.585" x2="12.955" y2="30.85" gradientUnits="userSpaceOnUse"><stop stop-color="#37D4EE"/><stop offset=".75" stop-color="#236EDE"/></linearGradient><linearGradient id="c" x1="32.92" y1="14.585" x2="12.955" y2="30.85" gradientUnits="userSpaceOnUse"><stop stop-color="#37D4EE"/><stop offset=".75" stop-color="#236EDE"/></linearGradient></defs></svg>