<svg xmlns="http://www.w3.org/2000/svg" width="512" height="512" viewBox="0 0 512.017 512.017"><path d="M496.188 199.957c12.182-18.321 17.596-40.104 15.322-62.275-2.595-25.292-14.884-48.059-34.603-64.108-29.324-23.866-68.698-27.34-100.811-12.198 55.301 29.596 98.5 78.954 120.092 138.581zM135.922 61.375C103.809 46.233 64.434 49.707 35.109 73.574 15.39 89.623 3.102 112.39.507 137.682c-2.274 22.171 3.14 43.954 15.322 62.275C37.421 140.33 80.62 90.972 135.922 61.375zm120.086-30.058c14.903 0 29.507 1.297 43.716 3.759C295.269 15.04 277.366.009 256.008.009s-39.262 15.031-43.716 35.067a255.9 255.9 0 0 1 43.716-3.759z" fill="#1b3a51" data-original="#000000"/><path d="M256.008 61.317c-124.256 0-225.346 101.09-225.346 225.346s101.09 225.346 225.346 225.346 225.346-101.09 225.346-225.346S380.264 61.317 256.008 61.317zm0 390.691c-91.172 0-165.346-74.174-165.346-165.346s74.174-165.346 165.346-165.346 165.346 74.174 165.346 165.346-74.174 165.346-165.346 165.346z" fill="#1b3a51" data-original="#000000"/><path d="M353.71 286.663c0-8.284 6.716-15 15-15h21.809c-6.942-62.669-56.841-112.568-119.51-119.51v21.809c0 8.284-6.716 15-15 15s-15-6.716-15-15v-21.809c-62.669 6.942-112.568 56.841-119.51 119.51h21.809c8.284 0 15 6.716 15 15s-6.716 15-15 15h-21.809c6.942 62.669 56.841 112.568 119.51 119.51v-21.809c0-8.284 6.716-15 15-15s15 6.716 15 15v21.809c62.669-6.942 112.568-56.841 119.51-119.51H368.71c-8.285 0-15-6.716-15-15zm-65.311 15h-32.391c-8.284 0-15-6.716-15-15v-43.556c0-8.284 6.716-15 15-15s15 6.716 15 15v28.556h17.391c8.284 0 15 6.716 15 15s-6.716 15-15 15z" fill="#1b3a51" data-original="#000000"/></svg>