<svg xmlns="http://www.w3.org/2000/svg" width="512" height="512" viewBox="0 0 64 64"><circle r="32" cx="32" cy="32" fill="#fff"/><path d="M54.065 24.403l-21.7-13.3a.7.7 0 0 0-.73 0l-21.7 13.3a.7.7 0 0 0-.235.957l2.1 3.5a.7.7 0 0 0 .964.238l1.736-1.054V48.1a4.906 4.906 0 0 0 4.9 4.9h9.8a.7.7 0 0 0 0-1.4h-9.8a3.504 3.504 0 0 1-3.5-3.5V27.194L32 17.419l16.1 9.775V48.1a3.504 3.504 0 0 1-3.5 3.5h-9.8a.7.7 0 0 0 0 1.4h9.8a4.906 4.906 0 0 0 4.9-4.9V28.044l1.736 1.05a.7.7 0 0 0 .364.106.721.721 0 0 0 .168-.02.7.7 0 0 0 .432-.32l2.1-3.5a.7.7 0 0 0-.235-.957zm-2.703 3.133L32.363 16.002a.7.7 0 0 0-.726 0l-16.8 10.2-2.199 1.334-1.381-2.302L32 12.521l20.743 12.713z" fill="#ffbc33" data-original="#000000"/><path d="M44.062 38.327a14.338 14.338 0 0 0 1.238-5.83 7.718 7.718 0 0 0-2.049-5.27A6.71 6.71 0 0 0 38.3 25a6.794 6.794 0 0 0-4.883 2.218L32 28.314l-1.418-1.096a7.274 7.274 0 0 0-2.199-1.606A6.3 6.3 0 0 0 25.7 25a6.71 6.71 0 0 0-4.951 2.227 7.718 7.718 0 0 0-2.049 5.27 13.826 13.826 0 0 0 4.723 10.519l8.12 7.014a.7.7 0 0 0 .914 0l8.12-7.013a13.629 13.629 0 0 0 3.485-4.69zM32 48.575l-7.663-6.619a12.43 12.43 0 0 1-4.237-9.459 6.324 6.324 0 0 1 1.676-4.319A5.327 5.327 0 0 1 25.7 26.4a4.9 4.9 0 0 1 2.09.48 5.868 5.868 0 0 1 1.808 1.33c.025.029 1.974 1.54 1.974 1.54a.7.7 0 0 0 .856 0s1.95-1.511 1.976-1.54A5.401 5.401 0 0 1 38.3 26.4a5.327 5.327 0 0 1 3.924 1.778 6.324 6.324 0 0 1 1.676 4.319 12.934 12.934 0 0 1-1.114 5.255 12.25 12.25 0 0 1-3.124 4.205z" fill="#ffbc33" data-original="#000000"/><path d="M37.6 34.8h-2.8v-2.807a.7.7 0 0 0-.7-.7h-4.2a.7.7 0 0 0-.7.7V34.8h-2.8a.7.7 0 0 0-.7.7v4.2a.7.7 0 0 0 .7.7h2.8v2.8a.7.7 0 0 0 .7.7h4.2a.7.7 0 0 0 .7-.7v-2.8h2.8a.7.7 0 0 0 .7-.7v-4.2a.7.7 0 0 0-.7-.7zm-.7 4.2h-2.8a.7.7 0 0 0-.7.7v2.8h-2.8v-2.8a.7.7 0 0 0-.7-.7h-2.8v-2.8h2.8a.7.7 0 0 0 .7-.7v-2.807h2.8V35.5a.7.7 0 0 0 .7.7h2.8z" fill="#ffbc33" data-original="#000000"/></svg>