<svg xmlns="http://www.w3.org/2000/svg" xmlns:xlink="http://www.w3.org/1999/xlink" viewBox="0 0 512 512"><defs><style>.cls-1{fill:url(#linear-gradient-2)}.cls-2{fill:url(#linear-gradient-4)}.cls-3{fill:url(#linear-gradient-3)}.cls-4{fill:url(#linear-gradient-5)}.cls-5{fill:url(#linear-gradient)}</style><linearGradient id="linear-gradient" x1="76.2" y1="78.3" x2="435.7" y2="437.8" gradientTransform="matrix(1 0 0 -1 0 514)" gradientUnits="userSpaceOnUse"><stop offset="0" stop-color="#00617c"/><stop offset=".5" stop-color="#9ed8d5"/><stop offset="1" stop-color="#00bcc5"/></linearGradient><linearGradient id="linear-gradient-2" x1="108.1" y1="106" x2="408" y2="405.9" xlink:href="#linear-gradient"/><linearGradient id="linear-gradient-3" x1="127.8" y1="229.6" x2="304.4" y2="406.2" xlink:href="#linear-gradient"/><linearGradient id="linear-gradient-4" x1="108.1" y1="106" x2="408" y2="405.9" xlink:href="#linear-gradient"/><linearGradient id="linear-gradient-5" x1="127.8" y1="229.6" x2="304.4" y2="406.2" xlink:href="#linear-gradient"/></defs><g id="Layer_1"><g id="Layer_1-2" data-name="Layer_1"><g id="Layer_1-2"><path class="cls-5" d="M491.4 157.7c-13.1-30.3-31.9-57.7-55.6-81.4s-51.1-42.4-81.4-55.6C322.8 6.9 289.7 0 256 0s-66.8 6.9-98.3 20.6C127.4 33.8 100 52.5 76.3 76.2c-23.7 23.7-42.4 51.1-55.6 81.4C6.9 189.2 0 222.3 0 256s6.9 66.8 20.6 98.3c13.1 30.3 31.9 57.7 55.6 81.4 23.7 23.7 51.1 42.4 81.4 55.6 31.5 13.7 64.6 20.6 98.3 20.6s66.8-6.9 98.3-20.6c30.3-13.1 57.7-31.9 81.4-55.6s42.4-51.1 55.6-81.4c13.7-31.5 20.6-64.6 20.6-98.3s-6.9-66.8-20.6-98.3h.2zM256 492C128.1 492 20 383.9 20 256S128.1 20 256 20s236 108.1 236 236-108.1 236-236 236z"/><path class="cls-1" d="M452 173.8c-10.9-25.3-26.4-48-46-67.7-19.7-19.7-42.5-35.2-67.7-46-26.2-11.3-53.9-17-82.2-17s-78.6 13.1-115.9 38c-4.6 3.1-5.9 9.3-2.8 13.9 3.1 4.6 9.3 5.8 13.9 2.8 34.1-22.7 70.4-34.6 104.9-34.6 104.6 0 193 88.4 193 193s-88.4 193-193 193S63 360.6 63 256s12-70.8 34.6-104.9c3.1-4.6 1.8-10.8-2.8-13.9-4.6-3.1-10.8-1.8-13.9 2.8-24.8 37.4-38 77.5-38 115.9s5.7 55.9 17 82.2c10.9 25.3 26.4 48 46 67.7 19.7 19.7 42.5 35.2 67.7 46 26.2 11.3 53.9 17 82.2 17s55.9-5.7 82.2-17c25.3-10.9 48-26.4 67.7-46 19.7-19.7 35.2-42.5 46-67.7 11.3-26.2 17-53.9 17-82.2s-5.7-55.9-17-82.2h.3z"/><path class="cls-3" d="M115 105c-5.5 0-10 4.5-10 10s4.5 10 10 10 10-4.5 10-10-4.5-10-10-10zm259.3 72.7c-7.6-7.6-17.6-11.7-28.3-11.7s-20.7 4.2-28.3 11.7L226 269.4l-31.7-31.7c-7.6-7.6-17.6-11.7-28.3-11.7s-20.7 4.2-28.3 11.7c-7.6 7.6-11.7 17.6-11.7 28.3s4.2 20.7 11.7 28.3l60 60c7.6 7.6 17.6 11.7 28.3 11.7s20.7-4.2 28.3-11.7l120-120c7.6-7.6 11.7-17.6 11.7-28.3s-4.2-20.7-11.7-28.3zm-14.2 42.4l-120 120c-3.8 3.8-8.8 5.9-14.1 5.9s-10.4-2.1-14.1-5.9l-60-60c-3.8-3.8-5.9-8.8-5.9-14.1s2.1-10.4 5.9-14.1c3.8-3.8 8.8-5.9 14.1-5.9s10.4 2.1 14.1 5.9l45.9 45.9 105.9-105.9c3.8-3.8 8.8-5.9 14.1-5.9s10.4 2.1 14.1 5.9c3.8 3.8 5.9 8.8 5.9 14.1s-2.1 10.4-5.9 14.1z"/></g><g id="Layer_1-3"><path class="cls-5" d="M491.4 157.7c-13.1-30.3-31.9-57.7-55.6-81.4s-51.1-42.4-81.4-55.6C322.8 6.9 289.7 0 256 0s-66.8 6.9-98.3 20.6C127.4 33.8 100 52.5 76.3 76.2c-23.7 23.7-42.4 51.1-55.6 81.4C6.9 189.2 0 222.3 0 256s6.9 66.8 20.6 98.3c13.1 30.3 31.9 57.7 55.6 81.4 23.7 23.7 51.1 42.4 81.4 55.6 31.5 13.7 64.6 20.6 98.3 20.6s66.8-6.9 98.3-20.6c30.3-13.1 57.7-31.9 81.4-55.6s42.4-51.1 55.6-81.4c13.7-31.5 20.6-64.6 20.6-98.3s-6.9-66.8-20.6-98.3h.2zM256 492C128.1 492 20 383.9 20 256S128.1 20 256 20s236 108.1 236 236-108.1 236-236 236z"/><path class="cls-2" d="M452 173.8c-10.9-25.3-26.4-48-46-67.7-19.7-19.7-42.5-35.2-67.7-46-26.2-11.3-53.9-17-82.2-17s-78.6 13.1-115.9 38c-4.6 3.1-5.9 9.3-2.8 13.9 3.1 4.6 9.3 5.8 13.9 2.8 34.1-22.7 70.4-34.6 104.9-34.6 104.6 0 193 88.4 193 193s-88.4 193-193 193S63 360.6 63 256s12-70.8 34.6-104.9c3.1-4.6 1.8-10.8-2.8-13.9-4.6-3.1-10.8-1.8-13.9 2.8-24.8 37.4-38 77.5-38 115.9s5.7 55.9 17 82.2c10.9 25.3 26.4 48 46 67.7 19.7 19.7 42.5 35.2 67.7 46 26.2 11.3 53.9 17 82.2 17s55.9-5.7 82.2-17c25.3-10.9 48-26.4 67.7-46 19.7-19.7 35.2-42.5 46-67.7 11.3-26.2 17-53.9 17-82.2s-5.7-55.9-17-82.2h.3z"/><path class="cls-4" d="M115 105c-5.5 0-10 4.5-10 10s4.5 10 10 10 10-4.5 10-10-4.5-10-10-10zm259.3 72.7c-7.6-7.6-17.6-11.7-28.3-11.7s-20.7 4.2-28.3 11.7L226 269.4l-31.7-31.7c-7.6-7.6-17.6-11.7-28.3-11.7s-20.7 4.2-28.3 11.7c-7.6 7.6-11.7 17.6-11.7 28.3s4.2 20.7 11.7 28.3l60 60c7.6 7.6 17.6 11.7 28.3 11.7s20.7-4.2 28.3-11.7l120-120c7.6-7.6 11.7-17.6 11.7-28.3s-4.2-20.7-11.7-28.3zm-14.2 42.4l-120 120c-3.8 3.8-8.8 5.9-14.1 5.9s-10.4-2.1-14.1-5.9l-60-60c-3.8-3.8-5.9-8.8-5.9-14.1s2.1-10.4 5.9-14.1c3.8-3.8 8.8-5.9 14.1-5.9s10.4 2.1 14.1 5.9l45.9 45.9 105.9-105.9c3.8-3.8 8.8-5.9 14.1-5.9s10.4 2.1 14.1 5.9c3.8 3.8 5.9 8.8 5.9 14.1s-2.1 10.4-5.9 14.1z"/></g></g></g></svg>