<svg width="84" height="58" viewBox="0 0 84 58" fill="none" xmlns="http://www.w3.org/2000/svg"><rect x=".5" y=".5" width="83" height="57" rx="3.5" fill="F9F9F9"/><path fill-rule="evenodd" clip-rule="evenodd" d="M30.774 44.791V49.074h-.937v-.52c-.297.386-.748.628-1.362.628-1.209 0-2.157-.94-2.157-2.25 0-1.307.948-2.248 2.157-2.248.613 0 1.065.242 1.362.627v-.52h.937zm-2.182.77c-.812 0-1.308.62-1.308 1.372 0 .753.496 1.371 1.308 1.371.775 0 1.299-.592 1.299-1.371 0-.78-.524-1.371-1.3-1.371zm33.862 1.372c0-.753.496-1.371 1.308-1.371.776 0 1.299.591 1.299 1.37 0 .78-.523 1.372-1.299 1.372-.812 0-1.308-.618-1.308-1.371zm3.492-3.861v6.002h-.939v-.52c-.297.386-.748.628-1.362.628-1.209 0-2.157-.94-2.157-2.25 0-1.307.948-2.248 2.157-2.248.614 0 1.065.242 1.362.627v-2.24h.939zM42.41 45.517c.604 0 .992.377 1.091 1.04h-2.237c.1-.619.478-1.04 1.146-1.04zm-2.129 1.416c0-1.336.884-2.25 2.148-2.25 1.208 0 2.038.914 2.047 2.25 0 .125-.01.242-.019.358h-3.201c.135.771.685 1.049 1.29 1.049a2.07 2.07 0 0 0 1.254-.448l.46.69c-.524.439-1.119.6-1.768.6-1.29 0-2.21-.887-2.21-2.25zm13.467 0c0-.753.497-1.371 1.308-1.371.776 0 1.3.591 1.3 1.37 0 .78-.524 1.372-1.3 1.372-.811 0-1.308-.618-1.308-1.371zm3.491-2.142V49.074h-.937v-.52c-.299.386-.749.628-1.362.628-1.21 0-2.157-.94-2.157-2.25 0-1.307.948-2.248 2.157-2.248.613 0 1.063.242 1.362.627v-.52h.937zm-8.785 2.142c0 1.3.91 2.249 2.3 2.249.65 0 1.082-.144 1.55-.51l-.45-.753c-.351.25-.72.385-1.128.385-.748-.01-1.298-.547-1.298-1.371 0-.825.55-1.362 1.298-1.371.407 0 .777.134 1.129.385l.45-.753c-.469-.367-.901-.51-1.55-.51-1.39 0-2.301.95-2.301 2.249zm10.95-1.622c.243-.376.596-.627 1.137-.627.19 0 .46.036.668.117l-.29.877a1.529 1.529 0 0 0-.586-.107c-.613 0-.92.394-.92 1.102v2.401h-.938v-4.283h.929v.52zm-23.994-.18c-.451-.294-1.073-.447-1.758-.447-1.093 0-1.796.52-1.796 1.37 0 .7.524 1.13 1.488 1.264l.443.063c.514.072.757.206.757.448 0 .331-.343.52-.983.52-.65 0-1.118-.206-1.434-.448l-.442.725c.514.377 1.164.556 1.867.556 1.245 0 1.966-.583 1.966-1.398 0-.753-.567-1.146-1.506-1.28l-.442-.064c-.405-.054-.73-.134-.73-.421 0-.314.306-.502.82-.502.55 0 1.083.207 1.344.368l.406-.753zm10.96.18c.243-.376.595-.627 1.136-.627.19 0 .46.036.668.117l-.289.877a1.53 1.53 0 0 0-.586-.107c-.614 0-.92.394-.92 1.102v2.401h-.938v-4.283h.93v.52zm-6.864-.52h-1.533v-1.299h-.948v1.3h-.875v.85h.875v1.954c0 .994.388 1.586 1.497 1.586.406 0 .875-.125 1.173-.331l-.27-.798c-.28.16-.587.242-.831.242-.469 0-.621-.287-.621-.717v-1.935h1.533v-.852zm-14.018 1.595v2.688h-.948v-2.383c0-.726-.306-1.13-.946-1.13-.623 0-1.055.395-1.055 1.139v2.374h-.948v-2.383c0-.726-.315-1.13-.938-1.13-.64 0-1.056.395-1.056 1.139v2.374h-.947v-4.283h.939v.529c.352-.502.802-.636 1.263-.636.658 0 1.127.287 1.424.762.398-.601.966-.771 1.516-.762 1.047.009 1.696.69 1.696 1.702z" fill="#231F20"/><path d="M49.309 37.514H35.1V12.149H49.31v25.365z" fill="#FF5F00"/><path d="M36.002 24.832c0-5.146 2.425-9.73 6.201-12.683A16.236 16.236 0 0 0 32.168 8.7c-8.968 0-16.237 7.222-16.237 16.132s7.27 16.131 16.237 16.131c3.788 0 7.274-1.289 10.035-3.449-3.776-2.953-6.201-7.537-6.201-12.682z" fill="#EB001B"/><path d="M68.477 24.832c0 8.91-7.27 16.131-16.237 16.131a16.24 16.24 0 0 1-10.036-3.449c3.777-2.953 6.203-7.537 6.203-12.682 0-5.146-2.426-9.73-6.203-12.683A16.241 16.241 0 0 1 52.24 8.7c8.968 0 16.237 7.222 16.237 16.132z" fill="#F79E1B"/></svg>