<svg width="84" height="58" viewBox="0 0 84 58" fill="none" xmlns="http://www.w3.org/2000/svg"><rect x=".5" y=".5" width="83" height="57" rx="3.5" fill="#F9F9F9"/><path d="M37.296 39.778h-5.593l3.498-20.3h5.592l-3.497 20.3zM57.569 19.974c-1.104-.411-2.853-.865-5.017-.865-5.522 0-9.411 2.764-9.435 6.716-.046 2.916 2.784 4.536 4.901 5.508 2.164.994 2.9 1.642 2.9 2.528-.023 1.36-1.749 1.986-3.36 1.986-2.232 0-3.428-.323-5.246-1.08l-.737-.324L40.793 39c1.311.561 3.728 1.059 6.237 1.08 5.868 0 9.688-2.72 9.733-6.932.023-2.311-1.472-4.082-4.694-5.53-1.956-.928-3.154-1.554-3.154-2.505.023-.864 1.013-1.749 3.221-1.749 1.818-.043 3.154.367 4.166.778l.506.215.76-4.383z" fill="#15195A"/><path fill-rule="evenodd" clip-rule="evenodd" d="M67.58 19.477h4.325l4.512 20.3h-5.178s-.507-2.332-.668-3.044h-7.18c-.207.54-1.174 3.045-1.174 3.045H56.35l8.307-18.616c.576-1.318 1.59-1.685 2.923-1.685zm-.345 7.43s-1.772 4.513-2.233 5.68h4.648c-.23-1.016-1.289-5.875-1.289-5.875l-.39-1.75c-.165.451-.403 1.07-.564 1.488-.108.283-.182.474-.172.456zM7.472 19.477h8.998c1.22.043 2.209.41 2.53 1.707l1.956 9.326v.003l.6 2.808 5.476-13.844h5.914l-8.79 20.28H18.24l-4.984-17.64c-1.72-.944-3.683-1.703-5.877-2.23l.092-.41zM48.314 50.852c-.074.013-.169.02-.284.02-.317 0-.544-.095-.679-.284-.135-.19-.203-.467-.203-.833v-6.232h.832v6.293c0 .136.023.23.07.284a.211.211 0 0 0 .163.082h.076c.023 0 .059-.007.106-.02l.112.629a.713.713 0 0 1-.193.06zm-2.493-.823v.721h-3.934v-6.658h3.832v.71h-2.99v2.091h2.524v.72h-2.525v2.416h3.093zm5.91.843c.338 0 .639-.051.902-.153.264-.101.504-.22.72-.355l-.294-.548a2.89 2.89 0 0 1-.573.28c-.2.07-.417.106-.654.106-.473 0-.856-.154-1.15-.462-.294-.308-.458-.726-.492-1.254h3.325c.014-.06.022-.133.026-.218.003-.084.005-.17.005-.258 0-.352-.044-.67-.132-.955a2.144 2.144 0 0 0-.38-.73 1.631 1.631 0 0 0-.619-.467 2.06 2.06 0 0 0-.836-.163c-.284 0-.558.06-.821.178-.264.118-.499.29-.705.513a2.553 2.553 0 0 0-.497.817 2.991 2.991 0 0 0-.187 1.09c0 .407.06.769.182 1.087.122.318.29.587.502.807.213.22.463.389.75.507.288.119.597.178.928.178zm-1.551-2.984h2.636c0-.501-.107-.882-.32-1.142-.213-.26-.512-.391-.897-.391a1.268 1.268 0 0 0-.933.401 1.64 1.64 0 0 0-.32.482c-.084.19-.14.406-.166.65zm6.529 2.984c.297 0 .58-.056.851-.168.27-.111.517-.265.74-.462l-.365-.558a2.56 2.56 0 0 1-.522.35 1.376 1.376 0 0 1-.634.148 1.368 1.368 0 0 1-1.1-.523 1.864 1.864 0 0 1-.309-.594 2.5 2.5 0 0 1-.111-.771c0-.284.039-.543.116-.777a1.94 1.94 0 0 1 .32-.604 1.392 1.392 0 0 1 1.105-.527c.196 0 .373.04.532.121.159.082.31.186.451.315l.426-.548a2.808 2.808 0 0 0-.608-.406 1.84 1.84 0 0 0-.832-.173c-.317 0-.62.058-.907.173a2.157 2.157 0 0 0-.755.507 2.481 2.481 0 0 0-.517.817 2.948 2.948 0 0 0-.193 1.102c0 .406.06.77.177 1.09.119.322.28.593.487.813.206.22.451.387.735.502.284.115.588.173.913.173zm4.597-.056a2.063 2.063 0 0 1-.471.056c-.264 0-.485-.04-.664-.122a1.142 1.142 0 0 1-.436-.335 1.307 1.307 0 0 1-.238-.518 2.953 2.953 0 0 1-.071-.67v-2.73h-.73v-.63l.77-.05.102-1.38h.7v1.38h1.327v.68h-1.328v2.74c0 .305.056.54.167.706.112.166.31.249.594.249.087 0 .182-.014.283-.04.102-.028.193-.058.274-.092l.162.63c-.135.047-.282.089-.44.126zm2.236-.066v-3.167c.169-.42.366-.714.593-.883.226-.169.444-.254.653-.254a1.325 1.325 0 0 1 .477.082l.162-.731a1.308 1.308 0 0 0-.527-.102 1.27 1.27 0 0 0-.786.274 2.28 2.28 0 0 0-.613.741h-.03l-.071-.893h-.69v4.933h.832zm5.368-.05a2.214 2.214 0 0 1-.867.172c-.304 0-.593-.058-.867-.173a2.135 2.135 0 0 1-.725-.502c-.21-.22-.376-.49-.501-.812a2.991 2.991 0 0 1-.188-1.091c0-.413.063-.78.188-1.102.124-.321.292-.593.501-.817.21-.223.452-.392.725-.507.274-.115.563-.173.867-.173.304 0 .593.058.867.173.273.115.515.284.725.507.21.224.376.496.501.817.126.322.188.689.188 1.102 0 .406-.063.77-.188 1.09a2.446 2.446 0 0 1-.501.813c-.21.22-.452.387-.725.502zm-.867-.518c-.21 0-.402-.046-.578-.137a1.33 1.33 0 0 1-.451-.386 1.833 1.833 0 0 1-.29-.594 2.733 2.733 0 0 1-.1-.771c0-.284.033-.543.1-.777a1.89 1.89 0 0 1 .29-.604c.125-.169.275-.3.451-.39.176-.092.368-.138.578-.138.21 0 .402.046.578.138.175.09.326.221.45.39.126.17.222.37.29.604.067.234.101.492.101.777 0 .284-.034.541-.101.771-.068.23-.164.428-.29.594a1.33 1.33 0 0 1-.45.386 1.234 1.234 0 0 1-.578.137zm4.41-3.005v3.573h-.831v-4.933h.689l.071.71h.03c.237-.236.485-.434.745-.593.26-.16.563-.239.908-.239.52 0 .9.163 1.14.487.24.325.36.806.36 1.442v3.126h-.831v-3.015c0-.466-.074-.803-.223-1.01-.149-.206-.385-.31-.71-.31a1.21 1.21 0 0 0-.679.194 4.41 4.41 0 0 0-.67.568z" fill="#15195A"/></svg>