<svg xmlns="http://www.w3.org/2000/svg" viewBox="0 0 162.23 70"><defs><linearGradient id="a" x1="35.91" y1="56.49" x2="35.91" y2="4.87" gradientUnits="userSpaceOnUse"><stop offset="0" stop-color="#5bbac7"/><stop offset=".16" stop-color="#62bcc9"/><stop offset=".38" stop-color="#75c3ce"/><stop offset=".5" stop-color="#82c7d1"/><stop offset="1" stop-color="#b1dae0"/></linearGradient></defs><g data-name="Layer 1"><circle cx="36.32" cy="34.76" r="34.04" fill="#1b4251"/><path d="M84 29a6.61 6.61 0 0 0 2.37 1.59 7.19 7.19 0 0 0 2.6.51 6 6 0 0 0 2.29-.43 4.14 4.14 0 0 0 1.69-1.25 3 3 0 0 0 .64-1.93 2.82 2.82 0 0 0-.67-1.93 6 6 0 0 0-1.73-1.36c-.71-.38-1.47-.75-2.26-1.1s-1.32-.62-2-.95A9.94 9.94 0 0 1 85.14 21a5 5 0 0 1-1.27-1.53 4.4 4.4 0 0 1-.48-2.12 4.65 4.65 0 0 1 .87-2.84 5.58 5.58 0 0 1 2.35-1.82 8.27 8.27 0 0 1 3.28-.63 11.55 11.55 0 0 1 2.49.29 11.84 11.84 0 0 1 2.62.95l-1 2a7.83 7.83 0 0 0-2-.82 8.14 8.14 0 0 0-2-.25 5.42 5.42 0 0 0-3 .78 2.7 2.7 0 0 0-.6 4 5.74 5.74 0 0 0 1.63 1.24c.67.35 1.38.7 2.15 1s1.35.64 2 1a11.07 11.07 0 0 1 1.87 1.2 5.35 5.35 0 0 1 1.35 1.61 4.55 4.55 0 0 1 .6 2.28 5.24 5.24 0 0 1-.93 3.06 6.32 6.32 0 0 1-2.54 2.12 8.21 8.21 0 0 1-3.64.78 10.08 10.08 0 0 1-3.17-.53 9.33 9.33 0 0 1-3-1.65zM112.36 26.08V27h-11.53a4.9 4.9 0 0 0 1.75 3 5.13 5.13 0 0 0 3.42 1.12 7 7 0 0 0 2.33-.43 6.21 6.21 0 0 0 2.23-1.37l1.29 1.68a8.94 8.94 0 0 1-3 1.7 9.42 9.42 0 0 1-2.85.46 8 8 0 0 1-3.91-.92 6.76 6.76 0 0 1-2.69-2.53 7 7 0 0 1-1-3.69 7 7 0 0 1 .91-3.59 6.67 6.67 0 0 1 2.5-2.5 7.18 7.18 0 0 1 3.6-.91 7 7 0 0 1 3.57.91 6.58 6.58 0 0 1 2.43 2.51 7.35 7.35 0 0 1 .95 3.64zm-11.55-1H110a4.87 4.87 0 0 0-1.53-2.91 4.37 4.37 0 0 0-3-1.12 4.49 4.49 0 0 0-3.09 1.14 4.84 4.84 0 0 0-1.57 2.9zM115.6 32.89v-13.6h2l.12 2.07a5.7 5.7 0 0 1 2-1.72 5.53 5.53 0 0 1 2.61-.62 5.4 5.4 0 0 1 2.92.8 5.55 5.55 0 0 1 2 2.19 6.84 6.84 0 0 1 .73 3.21v7.67h-2.24v-7.4a4.69 4.69 0 0 0-1.07-3.2 3.51 3.51 0 0 0-2.78-1.23 3.78 3.78 0 0 0-2.06.57 4 4 0 0 0-1.45 1.53 4.5 4.5 0 0 0-.53 2.2v7.53zM131.34 14.06a1.53 1.53 0 0 1 .44-1.12 1.57 1.57 0 0 1 2.69 1.12 1.53 1.53 0 0 1-.45 1.12 1.65 1.65 0 0 1-2.24 0 1.56 1.56 0 0 1-.44-1.12zm.44 18.83v-13.6H134v13.6zM137.13 26.09a7.14 7.14 0 0 1 .91-3.63 6.7 6.7 0 0 1 2.52-2.52 7.64 7.64 0 0 1 7.27 0 6.63 6.63 0 0 1 2.52 2.52 7.64 7.64 0 0 1 0 7.27 6.67 6.67 0 0 1-2.52 2.51 7.64 7.64 0 0 1-7.27 0 6.75 6.75 0 0 1-2.56-2.51 7.21 7.21 0 0 1-.87-3.64zm2.31 0a5.3 5.3 0 0 0 .62 2.59 4.79 4.79 0 0 0 6.58 1.79 4.65 4.65 0 0 0 1.7-1.79 5.41 5.41 0 0 0 .61-2.59 5.36 5.36 0 0 0-.61-2.59 4.79 4.79 0 0 0-1.7-1.79 4.92 4.92 0 0 0-4.89 0 4.69 4.69 0 0 0-1.69 1.79 5.25 5.25 0 0 0-.62 2.59zM154.47 32.89v-13.6h2l.13 2.14a5.35 5.35 0 0 1 1.76-1.75A4.78 4.78 0 0 1 161 19a7.18 7.18 0 0 1 1.28.12l-.32 2.09a5.27 5.27 0 0 0-1.25-.17 3.43 3.43 0 0 0-2.91 1.38 5.54 5.54 0 0 0-1 3.42v7zM83.57 36.1H88v9.07h9.53V36.1H102v21.75h-4.47v-8.77H88v8.77h-4.43zM108.18 51.85a3.8 3.8 0 0 0 1.44 2 4.12 4.12 0 0 0 2.46.75 5.74 5.74 0 0 0 2.5-.48 7.48 7.48 0 0 0 1.8-1.26l2.53 3a10.17 10.17 0 0 1-3.33 1.81 11 11 0 0 1-3.16.49 8.79 8.79 0 0 1-4.24-1 7.63 7.63 0 0 1-2.93-10.45A7.22 7.22 0 0 1 108 44a7.91 7.91 0 0 1 3.94-1 7.8 7.8 0 0 1 3.89 1 7.18 7.18 0 0 1 2.69 2.67 7.58 7.58 0 0 1 1 3.89v1.26zm7-2.32a3.73 3.73 0 0 0-1.18-2.06 3.46 3.46 0 0 0-2.27-.78 3.51 3.51 0 0 0-2.31.8 3.68 3.68 0 0 0-1.28 2zM127 35.52v22.33h-4.17V35.52zM130.87 43.35h3.95l.1 1.57a6.44 6.44 0 0 1 2.13-1.37 6.91 6.91 0 0 1 2.63-.49 6.81 6.81 0 0 1 3.63 1 6.89 6.89 0 0 1 2.51 2.68 8.64 8.64 0 0 1 0 7.76 6.83 6.83 0 0 1-2.51 2.68 6.72 6.72 0 0 1-3.63 1 7 7 0 0 1-2.54-.45 6.93 6.93 0 0 1-2.09-1.27v8.64h-4.18zm7.86 3.34a3.48 3.48 0 0 0-2.64 1.11 4.29 4.29 0 0 0 0 5.6 3.67 3.67 0 0 0 5.28 0 4.26 4.26 0 0 0 0-5.6 3.45 3.45 0 0 0-2.64-1.11z" fill="#1b4251"/><path d="M35.9 70a36.15 36.15 0 0 1-25.37-10.24 34.38 34.38 0 0 1 0-49.52 36.56 36.56 0 0 1 50.75 0 34.38 34.38 0 0 1 0 49.52A36.16 36.16 0 0 1 35.9 70zm0-67.51C17.48 2.49 2.49 17.07 2.49 35s15 32.51 33.41 32.51S69.32 52.93 69.32 35 54.33 2.49 35.9 2.49z" fill="#ffbc33"/><path d="M5.47 34.69c0 2.56 1.71 26.89 28.66 29.67a.17.17 0 0 0 .19-.15c.16-1.18.5-8.35-11.61-18.6a5.46 5.46 0 0 0-1.59-1c-.84-.32-1.81-.45-1.69.82.21 2.37 5.39 7.09 7.66 8.4 1.56.9-3.08 1.53-4.89.21a12.75 12.75 0 0 1-4.65-4.82 19.54 19.54 0 0 1-2.06-7.59 6.24 6.24 0 0 0-4.06-4.9.08.08 0 0 0-.1.11 36.36 36.36 0 0 1 2.12 8.29 14.55 14.55 0 0 0 3.88 8.37.14.14 0 0 1-.11.24c-.91 0-3.72-.35-5.36-6.11-2-7-1.4-7.61-2.41-10.13s-2.28-3.13-3.79-3.07a.21.21 0 0 0-.19.26zM66.34 34.67c0 2.57-1.71 26.89-28.66 29.67a.19.19 0 0 1-.2-.15C37.33 63 37 55.84 49.1 45.59a5.33 5.33 0 0 1 1.59-1c.84-.31 1.81-.45 1.69.82-.21 2.37-5.39 7.09-7.66 8.4-1.56.9 3.07 1.53 4.89.22a12.9 12.9 0 0 0 4.65-4.82 19.81 19.81 0 0 0 2.06-7.6 6.24 6.24 0 0 1 4.06-4.9.09.09 0 0 1 .1.12 36 36 0 0 0-2.13 8.28 14.49 14.49 0 0 1-3.87 8.37.14.14 0 0 0 .1.24c.92 0 3.73-.35 5.37-6.1 2-7 1.4-7.62 2.41-10.14s2.28-3.13 3.79-3.06a.19.19 0 0 1 .19.25z" fill="#ffbc33"/><path d="M25.8 43.66L27.5 42a1.82 1.82 0 0 0 .18-2.36 1.79 1.79 0 0 0-.95-.67 2.61 2.61 0 0 1-1-.61 2.49 2.49 0 0 1 0-3.5 2.59 2.59 0 0 1 1-.6 39.76 39.76 0 0 0 7.65 6.65 2.61 2.61 0 0 0 3.1 0 39.76 39.76 0 0 0 7.65-6.65 2.47 2.47 0 0 1 .87 4.11 2.46 2.46 0 0 1-1 .56 1.81 1.81 0 0 0-.74 3L46 43.66c-3.39 3.05-7.35 9.3-9.14 12.28a1.13 1.13 0 0 1-2 0c-1.72-2.94-5.67-9.23-9.06-12.28z" fill="#95d3de"/><path d="M23 42s-.72-.38-1.08-.52c-.6-.23-2.75-.37-3.55-.8a.82.82 0 0 1-.31-.59 9.84 9.84 0 0 0-5.54-6.37l-.43-.13c-.16 0-2.4-1.59-2.4-1.59-1-1-.55-1.47-.33-1.69l3.9-3.9-.9-.29a3.79 3.79 0 0 1-1.52-.92 3.73 3.73 0 0 1 5.11-5.42A3.75 3.75 0 0 1 17 21.42l.29.91 3.21-3.22a1.14 1.14 0 0 1 1.62 0l2.31 2.3 3.37 3.21a1.18 1.18 0 0 1 .36.77l.25 4.71a.85.85 0 0 1 0 .32l-.22 1-2.44-.19h-.11a5.56 5.56 0 0 0-2.13 1.33 5.66 5.66 0 0 0 0 8A4.69 4.69 0 0 0 24 41zM47.86 41a4.69 4.69 0 0 0 .47-.42 5.66 5.66 0 0 0-2-9.29l.1-.25.12-.38.25-.81-.83.05-.91.07-.22-1a1.66 1.66 0 0 1 0-.32l.24-4.65a1.13 1.13 0 0 1 .35-.77L48.8 20l.88-.89a1.15 1.15 0 0 1 1.63 0l3.21 3.22.29-.91a3.75 3.75 0 0 1 1.08-1.67 3.73 3.73 0 0 1 6.19 2.66 3.73 3.73 0 0 1-2.61 3.68l-.9.29 3.91 3.9c.22.22.68.68-.33 1.69 0 0-2.25 1.55-2.4 1.59l-.44.13a9.86 9.86 0 0 0-5.53 6.37.82.82 0 0 1-.31.59c-.8.43-2.95.57-3.55.8a6.69 6.69 0 0 0-1.08.52z" fill="#95d3de"/><path d="M36.52 21.47a1.24 1.24 0 0 1-1.21 0 7.52 7.52 0 0 0-3.65-.92 6.71 6.71 0 0 0-2.24.37 1.14 1.14 0 0 1-1.22-.25l-.7-.7-2.79-2.79a1.14 1.14 0 0 1 0-1.62l3.42-3.42-1.62-.51a3.29 3.29 0 0 1-2.29-3.12A3.27 3.27 0 0 1 29.8 6.2a3.21 3.21 0 0 1 .81 1.33l.5 1.62 4-3.95a1.14 1.14 0 0 1 1.6 0l4 4 .51-1.62A3.19 3.19 0 0 1 42 6.2a3.27 3.27 0 1 1 4.62 4.62 3.15 3.15 0 0 1-1.33.81l-1.62.51 3.43 3.42a1.14 1.14 0 0 1 0 1.62l-2.76 2.76-.73.73a1.14 1.14 0 0 1-1.22.25 6.72 6.72 0 0 0-2.25-.37 7.51 7.51 0 0 0-3.62.92z" fill="#98d1d8"/><path d="M25.8 43.66L27.5 42a1.82 1.82 0 0 0 .18-2.36 1.79 1.79 0 0 0-.95-.67 2.61 2.61 0 0 1-1-.61 2.49 2.49 0 0 1 0-3.5 2.59 2.59 0 0 1 1-.6 39.76 39.76 0 0 0 7.65 6.65 2.61 2.61 0 0 0 3.1 0 39.76 39.76 0 0 0 7.65-6.65 2.47 2.47 0 0 1 .87 4.11 2.46 2.46 0 0 1-1 .56 1.81 1.81 0 0 0-.74 3L46 43.66c-3.39 3.05-7.35 9.3-9.14 12.28a1.13 1.13 0 0 1-2 0c-1.72-2.94-5.67-9.23-9.06-12.28z" fill="url(#a)"/><path d="M25.8 43.66L27.5 42a1.82 1.82 0 0 0 .18-2.36 1.79 1.79 0 0 0-.95-.67 2.61 2.61 0 0 1-1-.61 2.49 2.49 0 0 1 0-3.5 2.59 2.59 0 0 1 1-.6 39.76 39.76 0 0 0 7.65 6.65 2.61 2.61 0 0 0 3.1 0 39.76 39.76 0 0 0 7.65-6.65 2.47 2.47 0 0 1 .87 4.11 2.46 2.46 0 0 1-1 .56 1.81 1.81 0 0 0-.74 3L46 43.66c-3.39 3.05-7.35 9.3-9.14 12.28a1.13 1.13 0 0 1-2 0c-1.72-2.94-5.67-9.23-9.06-12.28z" fill="url(#a)"/><path d="M23 42s-.72-.38-1.08-.52c-.6-.23-2.75-.37-3.55-.8a.82.82 0 0 1-.31-.59 9.84 9.84 0 0 0-5.54-6.37l-.43-.13c-.16 0-2.4-1.59-2.4-1.59-1-1-.55-1.47-.33-1.69l3.9-3.9-.9-.29a3.79 3.79 0 0 1-1.52-.92 3.73 3.73 0 0 1 5.11-5.42A3.75 3.75 0 0 1 17 21.42l.29.91 3.21-3.22a1.14 1.14 0 0 1 1.62 0l2.31 2.3 3.37 3.21a1.18 1.18 0 0 1 .36.77l.25 4.71a.85.85 0 0 1 0 .32l-.22 1-2.44-.19h-.11a5.56 5.56 0 0 0-2.13 1.33 5.66 5.66 0 0 0 0 8A4.69 4.69 0 0 0 24 41z" fill="url(#a)"/><path d="M23 42s-.72-.38-1.08-.52c-.6-.23-2.75-.37-3.55-.8a.82.82 0 0 1-.31-.59 9.84 9.84 0 0 0-5.54-6.37l-.43-.13c-.16 0-2.4-1.59-2.4-1.59-1-1-.55-1.47-.33-1.69l3.9-3.9-.9-.29a3.79 3.79 0 0 1-1.52-.92 3.73 3.73 0 0 1 5.11-5.42A3.75 3.75 0 0 1 17 21.42l.29.91 3.21-3.22a1.14 1.14 0 0 1 1.62 0l2.31 2.3 3.37 3.21a1.18 1.18 0 0 1 .36.77l.25 4.71a.85.85 0 0 1 0 .32l-.22 1-2.44-.19h-.11a5.56 5.56 0 0 0-2.13 1.33 5.66 5.66 0 0 0 0 8A4.69 4.69 0 0 0 24 41zM47.86 41a4.69 4.69 0 0 0 .47-.42 5.66 5.66 0 0 0-2-9.29l.1-.25.12-.38.25-.81-.83.05-.91.07-.22-1a1.66 1.66 0 0 1 0-.32l.24-4.65a1.13 1.13 0 0 1 .35-.77L48.8 20l.88-.89a1.15 1.15 0 0 1 1.63 0l3.21 3.22.29-.91a3.75 3.75 0 0 1 1.08-1.67 3.73 3.73 0 0 1 6.19 2.66 3.73 3.73 0 0 1-2.61 3.68l-.9.29 3.91 3.9c.22.22.68.68-.33 1.69 0 0-2.25 1.55-2.4 1.59l-.44.13a9.86 9.86 0 0 0-5.53 6.37.82.82 0 0 1-.31.59c-.8.43-2.95.57-3.55.8a6.69 6.69 0 0 0-1.08.52z" fill="url(#a)"/><path d="M47.86 41a4.69 4.69 0 0 0 .47-.42 5.66 5.66 0 0 0-2-9.29l.1-.25.12-.38.25-.81-.83.05-.91.07-.22-1a1.66 1.66 0 0 1 0-.32l.24-4.65a1.13 1.13 0 0 1 .35-.77L48.8 20l.88-.89a1.15 1.15 0 0 1 1.63 0l3.21 3.22.29-.91a3.75 3.75 0 0 1 1.08-1.67 3.73 3.73 0 0 1 6.19 2.66 3.73 3.73 0 0 1-2.61 3.68l-.9.29 3.91 3.9c.22.22.68.68-.33 1.69 0 0-2.25 1.55-2.4 1.59l-.44.13a9.86 9.86 0 0 0-5.53 6.37.82.82 0 0 1-.31.59c-.8.43-2.95.57-3.55.8a6.69 6.69 0 0 0-1.08.52zM36.52 21.47a1.24 1.24 0 0 1-1.21 0 7.52 7.52 0 0 0-3.65-.92 6.71 6.71 0 0 0-2.24.37 1.14 1.14 0 0 1-1.22-.25l-.7-.7-2.79-2.79a1.14 1.14 0 0 1 0-1.62l3.42-3.42-1.62-.51a3.29 3.29 0 0 1-2.29-3.12A3.27 3.27 0 0 1 29.8 6.2a3.21 3.21 0 0 1 .81 1.33l.5 1.62 4-3.95a1.14 1.14 0 0 1 1.6 0l4 4 .51-1.62A3.19 3.19 0 0 1 42 6.2a3.27 3.27 0 1 1 4.62 4.62 3.15 3.15 0 0 1-1.33.81l-1.62.51 3.43 3.42a1.14 1.14 0 0 1 0 1.62l-2.76 2.76-.73.73a1.14 1.14 0 0 1-1.22.25 6.72 6.72 0 0 0-2.25-.37 7.51 7.51 0 0 0-3.62.92z" fill="url(#a)"/><path d="M36.52 21.47a1.24 1.24 0 0 1-1.21 0 7.52 7.52 0 0 0-3.65-.92 6.71 6.71 0 0 0-2.24.37 1.14 1.14 0 0 1-1.22-.25l-.7-.7-2.79-2.79a1.14 1.14 0 0 1 0-1.62l3.42-3.42-1.62-.51a3.29 3.29 0 0 1-2.29-3.12A3.27 3.27 0 0 1 29.8 6.2a3.21 3.21 0 0 1 .81 1.33l.5 1.62 4-3.95a1.14 1.14 0 0 1 1.6 0l4 4 .51-1.62A3.19 3.19 0 0 1 42 6.2a3.27 3.27 0 1 1 4.62 4.62 3.15 3.15 0 0 1-1.33.81l-1.62.51 3.43 3.42a1.14 1.14 0 0 1 0 1.62l-2.76 2.76-.73.73a1.14 1.14 0 0 1-1.22.25 6.72 6.72 0 0 0-2.25-.37 7.51 7.51 0 0 0-3.62.92z" fill="url(#a)"/><path d="M46 23.84c-4.63-6-10.12-1.73-10.13-1.72s-5.5-4.24-10.14 1.72 3.6 12.92 3.6 12.92 5 4.52 6.53 4.54c1.57 0 6.54-4.54 6.54-4.54s8.28-6.95 3.6-12.92z" fill="#ffbc33"/><path d="M35.8 41.53c-1.81-.26-6.11-4.14-6.61-4.59-.07-.07-8.35-7.17-3.62-13.25a7.41 7.41 0 0 1 5.92-3.28 8.16 8.16 0 0 1 4.41 1.41 8.09 8.09 0 0 1 4.4-1.41 7.42 7.42 0 0 1 5.93 3.28C51 29.77 42.68 36.87 42.6 37c-.51.46-5.08 4.58-6.69 4.6h-.06zm-4.31-18.69a5.1 5.1 0 0 0-4 2.34c-3.25 4.18 3 9.68 3.28 9.91a30.55 30.55 0 0 0 5.23 4 43 43 0 0 0 5-4c.32-.28 6.59-5.78 3.34-10a5.1 5.1 0 0 0-4-2.34 5.75 5.75 0 0 0-3.08 1l-1.17.89-1.48-.89a5.82 5.82 0 0 0-3.12-.91z" fill="#1b4251"/></g></svg>