<svg xmlns="http://www.w3.org/2000/svg" viewBox="0 0 3000 5000"><path fill="#1B3A51" d="M1436.6 2445.1c198.5 0 370.4-71.2 510.9-211.7s211.7-312.3 211.7-510.9c0-198.5-71.2-370.4-211.7-510.9-140.5-140.4-312.4-211.6-510.9-211.6-198.6 0-370.4 71.2-510.9 211.7S714 1524 714 1722.5c0 198.6 71.2 370.4 211.7 510.9s312.4 211.7 510.9 211.7zM2700.9 3306.8c-4.1-58.5-12.2-122.2-24.3-189.6-12.2-67.8-27.9-132-46.6-190.6-19.4-60.6-45.8-120.4-78.3-177.7-33.8-59.5-73.6-111.3-118.1-154-46.6-44.6-103.7-80.5-169.7-106.6-65.8-26-138.7-39.2-216.7-39.2-30.6 0-60.2 12.6-117.4 49.8-35.2 23-76.4 49.5-122.3 78.9-39.3 25-92.5 48.5-158.3 69.7-64.2 20.8-129.3 31.3-193.6 31.3s-129.4-10.5-193.6-31.3c-65.7-21.2-118.9-44.7-158.2-69.7-45.5-29.1-86.7-55.6-122.5-78.9-57.1-37.2-86.8-49.8-117.4-49.8-78 0-150.9 13.2-216.6 39.3-66 26.1-123.1 62-169.7 106.6-44.6 42.7-84.3 94.5-118.1 153.9-32.6 57.3-58.9 117.1-78.3 177.8-18.7 58.6-34.4 122.7-46.6 190.6-12.1 67.2-20.3 131-24.3 189.6-4 57.4-6 117-6 177.2 0 156.6 49.8 283.4 147.9 376.9 97 92.3 225.2 139.1 381.2 139.1h1444.5c156 0 284.2-46.8 381.2-139.1 98.2-93.4 148-220.2 148-376.9-.1-60.5-2.2-120.1-6.2-177.3z"/></svg>