<svg xmlns="http://www.w3.org/2000/svg" width="512" height="512" viewBox="0 0 512.001 512.001"><circle r="256" cx="256" cy="256" fill="#fff"/><path d="M255.323 259.13l-34.375-10.425-3.74-7.48a5.245 5.245 0 0 0-6.241-2.663v-1.3c14.235-10.285 23.896-26.527 25.266-45.047 6.67-1.864 11.92-7.289 13.02-14.05.693-4.266-.213-8.465-2.286-11.955 6.636-3.474 11.177-10.425 11.177-18.42 0-7.25-3.842-13.857-9.817-17.58.33-1.354.499-2.75.499-4.163 0-9.747-7.93-17.675-17.675-17.675-2.338 0-4.57.46-6.614 1.288-10.117-9.19-23.071-14.224-36.874-14.224h-24.85c-13.741 0-26.75 5.042-36.875 14.224a17.569 17.569 0 0 0-6.612-1.288c-9.746 0-17.675 7.928-17.675 17.675 0 1.413.169 2.81.498 4.164-5.975 3.722-9.817 10.328-9.817 17.579 0 7.99 4.536 14.937 11.165 18.413a17.767 17.767 0 0 0-2.272 11.961c1.099 6.762 6.348 12.187 13.019 14.05 1.367 18.495 11.004 34.718 25.207 45.004v1.325a5.248 5.248 0 0 0-6.183 2.682l-3.737 7.473-35.707 10.712C83.641 262.465 76.8 271.66 76.8 282.29v129.02a5.25 5.25 0 0 0 10.5 0v-129.02c0-.385.018-.765.05-1.143l20.984 20.985a19.47 19.47 0 0 1 5.741 13.86v95.318a5.25 5.25 0 0 0 10.5 0v-95.319c0-8.04-3.131-15.599-8.816-21.284l-23.12-23.12a13.482 13.482 0 0 1 4.202-2.12l23.654-7.096c1.852 5.206 15.607 40.96 51.83 65.108a5.244 5.244 0 0 0 5.825 0c37.436-24.958 50.79-61.851 51.89-65.045l22.237 6.743a5.25 5.25 0 0 0 1.525.227 5.252 5.252 0 0 0 1.521-10.276zm-42.796-3.786l-17.741 22.177a.91.91 0 0 1-.767.361.932.932 0 0 1-.755-.385l-10.051-13.402 26.952-13.476 2.362 4.725zm-37.29.998L149.95 243.7v-.352a60.81 60.81 0 0 0 25.288 5.477 60.803 60.803 0 0 0 25.229-5.453v.357l-25.23 12.614zm55.913-137.47c3.957 0 7.175 3.219 7.175 7.175a7.132 7.132 0 0 1-1.193 3.945 5.247 5.247 0 0 0-.54 4.735 5.253 5.253 0 0 0 3.51 3.22c4.44 1.237 7.542 5.285 7.542 9.844 0 5.669-4.612 10.281-10.281 10.281s-10.282-4.612-10.282-10.281c0-2.54.977-5.001 2.75-6.928a5.249 5.249 0 0 0-1.664-8.322c-2.546-1.175-4.192-3.724-4.192-6.494 0-3.956 3.219-7.175 7.175-7.175zm-128.319 28.919c0-4.559 3.102-8.606 7.543-9.842a5.25 5.25 0 0 0 2.97-7.956 7.132 7.132 0 0 1-1.194-3.945c0-3.956 3.219-7.175 7.175-7.175s7.175 3.218 7.175 7.174c0 2.77-1.646 5.32-4.192 6.494a5.249 5.249 0 0 0-1.663 8.322c1.773 1.927 2.75 4.387 2.75 6.928 0 5.669-4.613 10.281-10.282 10.281s-10.282-4.612-10.282-10.281zm21.744 39.87a5.25 5.25 0 0 0-5.25-5.25c-3.861 0-7.188-2.55-7.738-5.93-.626-3.854 1.731-7.398 5.483-8.243.203-.046.399-.106.59-.173 9.278-2.08 16.234-10.378 16.234-20.274 0-3.21-.754-6.346-2.173-9.187 3.312-3.268 5.28-7.776 5.28-12.557a17.57 17.57 0 0 0-2.857-9.616c8.013-6.783 18.07-10.494 28.669-10.494h24.85c10.645 0 20.672 3.693 28.677 10.482a17.565 17.565 0 0 0-2.865 9.628c0 4.78 1.967 9.289 5.28 12.557a20.524 20.524 0 0 0-2.173 9.187c0 10.096 7.238 18.53 16.796 20.394.161.066.326.125.497.176 3.002.897 5.688 3.973 5.014 8.12-.55 3.382-3.877 5.932-7.738 5.932a5.25 5.25 0 0 0-5.25 5.25c0 27.935-22.727 50.662-50.663 50.662s-50.663-22.727-50.663-50.663zm14.072 66.283l1.663-3.325 26.953 13.476-10.051 13.402a.932.932 0 0 1-.755.385c-.23.018-.523-.057-.767-.361l-17.601-22.002c.268-.49.456-1.021.558-1.575zm36.59 62.795c-23.503-16.704-36.152-38.566-41.528-49.887l13.782 17.228a11.383 11.383 0 0 0 8.945 4.302l.185-.001a11.387 11.387 0 0 0 8.99-4.584l4.376-5.834v21.525a5.25 5.25 0 0 0 10.5 0v-21.525l4.376 5.834a11.385 11.385 0 0 0 9.175 4.585c3.5 0 6.752-1.56 8.945-4.302l13.824-17.281c-5.332 11.29-17.944 33.158-41.57 49.94z" fill="#ffbc33" data-original="#000000"/><path d="M190.97 202.223a5.25 5.25 0 0 0-7.384.77c-2.233 2.753-5.198 4.27-8.348 4.27s-6.114-1.517-8.347-4.27a5.25 5.25 0 1 0-8.154 6.614c4.203 5.183 10.218 8.155 16.502 8.155s12.297-2.973 16.501-8.155a5.25 5.25 0 0 0-.77-7.384zm-40.582-32.236a5.25 5.25 0 0 0-5.25 5.25v6.212a5.25 5.25 0 0 0 10.5 0v-6.212a5.25 5.25 0 0 0-5.25-5.25zm49.7 0a5.25 5.25 0 0 0-5.25 5.25v6.212a5.25 5.25 0 0 0 10.5 0v-6.212a5.25 5.25 0 0 0-5.25-5.25zM253.5 283.35a5.25 5.25 0 0 0-7.424 0l-11.36 11.359c-5.685 5.685-8.816 13.244-8.816 21.284v95.319a5.25 5.25 0 0 0 10.5 0v-95.32c0-5.234 2.04-10.157 5.74-13.858l11.36-11.36a5.25 5.25 0 0 0 0-7.424zm105.208-37.64a5.25 5.25 0 0 0-7.385.77c-2.233 2.754-5.197 4.27-8.347 4.27s-6.115-1.516-8.348-4.27a5.25 5.25 0 1 0-8.154 6.614c4.203 5.183 10.217 8.155 16.501 8.155s12.298-2.972 16.503-8.155a5.25 5.25 0 0 0-.77-7.384zm-71.645 92.014a5.25 5.25 0 0 0-5.25 5.25v68.338a5.25 5.25 0 0 0 10.5 0v-68.338a5.25 5.25 0 0 0-5.25-5.25zm111.825 0a5.25 5.25 0 0 0-5.25 5.25v68.338a5.25 5.25 0 0 0 10.5 0v-68.338a5.25 5.25 0 0 0-5.25-5.25z" fill="#ffbc33" data-original="#000000"/><path d="M417.65 301.847a23.859 23.859 0 0 0 5.125-14.785c0-8.847-4.852-16.765-12.445-20.884a20.733 20.733 0 0 0-8.677-17.775c.357-1.211.688-2.43.968-3.665.68-2.998 1.115-6.166 1.319-9.638 8.263-12.193 12.623-26.417 12.623-41.226 0-40.576-33.012-73.587-73.588-73.587s-73.587 33.011-73.587 73.587c0 14.81 4.36 29.034 12.623 41.226.204 3.474.638 6.642 1.318 9.637.28 1.234.612 2.454.969 3.665a20.734 20.734 0 0 0-8.678 17.776c-7.593 4.119-12.445 12.037-12.445 20.884a23.863 23.863 0 0 0 5.126 14.785c-10.82 6.492-17.55 18.153-17.55 31.095v78.373a5.25 5.25 0 0 0 10.5 0v-78.373c0-10.616 6.368-20.023 16.225-23.967l1.005-.401c15.528 20.986 39.45 33.438 64.495 33.438 25.387 0 48.785-12.165 64.49-33.44l1.009.403c9.857 3.944 16.226 13.35 16.226 23.967v78.37a5.25 5.25 0 0 0 10.5 0v-78.37c0-12.942-6.732-24.603-17.551-31.095zM279.888 193.874c0-34.786 28.3-63.087 63.087-63.087s63.088 28.3 63.088 63.087c0 8.85-1.818 17.451-5.315 25.39-7.565-16.276-24.377-20.837-40.733-25.263-13.222-3.578-26.894-7.278-38.611-16.65a5.249 5.249 0 0 0-7.975 1.75c-.055.11-5.555 10.923-16.29 16.29a5.25 5.25 0 0 0-2.348 7.044 5.249 5.249 0 0 0 7.044 2.348c8.545-4.273 14.432-11.058 17.752-15.755 12.229 8.22 25.666 11.856 37.686 15.108 3.945 1.068 7.576 2.08 10.894 3.135-.114-.002-.228-.008-.343-.008-6.398 0-12.012 3.416-15.115 8.521-2.902-1.493-6.233-2.309-9.734-2.309-3.501 0-6.833.816-9.735 2.31-3.103-5.105-8.718-8.522-15.115-8.522-9.746 0-17.675 7.929-17.675 17.675s7.929 17.675 17.675 17.675c9.083 0 16.585-6.888 17.564-15.715 1.713-1.823 4.39-2.923 7.286-2.923 2.895 0 5.573 1.1 7.286 2.923.978 8.827 8.48 15.715 17.563 15.715 9.747 0 17.675-7.93 17.675-17.675 0-5.106-2.178-9.71-5.651-12.94 7.508 4.092 12.126 9.804 13.837 19.892a5.308 5.308 0 0 0-.158 1.095c-.125 3.5-.5 6.585-1.146 9.43-2.499 11.013-8.744 21.013-17.585 28.16-9.096 7.352-20.1 11.238-31.822 11.238-11.722 0-22.726-3.886-31.822-11.239-8.84-7.145-15.085-17.146-17.584-28.16-.644-2.839-1.02-5.92-1.145-9.42a5.233 5.233 0 0 0-1.56-3.547c-7.183-10.5-10.975-22.78-10.975-35.573zM375 224.937c0 3.956-3.218 7.175-7.175 7.175s-7.175-3.219-7.175-7.175 3.219-7.175 7.175-7.175S375 220.98 375 224.937zm-49.7 0c0 3.956-3.218 7.175-7.175 7.175s-7.175-3.219-7.175-7.175 3.219-7.175 7.175-7.175 7.175 3.219 7.175 7.175zm47.858 69.895c-8.163 7.577-18.84 11.83-30.184 11.83-11.33 0-22.014-4.256-30.18-11.831a17.576 17.576 0 0 0 7.858-6.755c7.072 2.77 14.65 4.236 22.323 4.236s15.252-1.467 22.323-4.236a17.58 17.58 0 0 0 7.86 6.756zm-94.73 2.454a13.377 13.377 0 0 1-4.752-10.225c0-5.805 3.764-10.9 9.367-12.679a5.25 5.25 0 0 0 3.477-6.381c-.287-1.054-.42-1.906-.42-2.682 0-2.435.854-4.717 2.328-6.516a61.529 61.529 0 0 0 16.124 19.936 60.49 60.49 0 0 0 6.56 4.613 7.152 7.152 0 0 1-2.747 1.96l-29.938 11.974zm64.547 34.226c-21.16 0-40.716-9.776-54.37-26.988l13.622-5.448c10.42 11.533 25.091 18.086 40.749 18.086 15.672 0 30.327-6.55 40.748-18.087l13.626 5.451c-13.66 17.207-33.248 26.986-54.375 26.986zm64.548-34.225l-29.938-11.976a7.15 7.15 0 0 1-2.747-1.96 60.655 60.655 0 0 0 6.56-4.612 61.536 61.536 0 0 0 16.124-19.936 10.26 10.26 0 0 1 2.328 6.516c0 .776-.133 1.628-.42 2.682a5.25 5.25 0 0 0 3.478 6.381c5.603 1.779 9.367 6.874 9.367 12.68a13.377 13.377 0 0 1-4.752 10.225z" fill="#ffbc33" data-original="#000000"/></svg>