<svg xmlns="http://www.w3.org/2000/svg" width="460" height="512" viewBox="0 0 460 512"><g fill="#ffbc33" data-name="Layer 1"><path d="M320 0a10 10 0 0 0-10 10v46a10 10 0 0 0 20 0V10a10 10 0 0 0-10-10zM90 312a10 10 0 1 0 10 10 10 10 0 0 0-10-10z"/><path d="M460 292a40 40 0 0 0-40-40h-74.65c11.55-29.6 16.23-64.45 15.33-95.46-.17-5.92-.4-9.35-.7-11.5a40 40 0 0 0-80 1v10c0 63.25-81.21 98.78-142.5 114A30 30 0 0 0 110 252H10a10 10 0 0 0-10 10v240a10 10 0 0 0 10 10h100a30 30 0 0 0 27.4-17.81q7.08 1.81 14.14 3.67C186.45 507 205.68 512 252.46 512H360a40 40 0 0 0 33.23-62.24 40.11 40.11 0 0 0 20.07-60 40 40 0 0 0 19.93-60A40 40 0 0 0 460 292zM120 482a10 10 0 0 1-10 10H20V272h90a10 10 0 0 1 10 10zm300-170h-50a10 10 0 0 0 0 20h30a20 20 0 0 1 0 40h-50a10 10 0 0 0 0 20h30a20 20 0 0 1 0 40h-50a10 10 0 0 0 0 20h30a20 20 0 0 1 0 40H252.46c-44.21 0-61.47-4.51-95.87-13.49q-8.29-2.17-16.59-4.3V290c72.37-17.23 160-59.31 160-134v-10a20 20 0 0 1 40 0c0 4.35 5.42 57.68-16.33 106H290a10 10 0 0 0 0 20h130a20 20 0 0 1 0 40z"/><path d="M90 352a10 10 0 0 0-10 10v80a10 10 0 0 0 20 0v-80a10 10 0 0 0-10-10zm150-226h-40a10 10 0 0 0 0 20h40a10 10 0 0 0 0-20zm200 0h-40a10 10 0 0 0 0 20h40a10 10 0 0 0 0-20zm-28.08-81.92a10 10 0 0 0-14.14 0L369.5 72.36a10 10 0 1 0 14.14 14.14l28.28-28.28a10 10 0 0 0 0-14.14zM270.5 72.36l-28.28-28.28a10 10 0 1 0-14.14 14.14l28.28 28.28a10 10 0 1 0 14.14-14.14z"/></g></svg>