<svg xmlns="http://www.w3.org/2000/svg" width="512" height="435.97" viewBox="0 0 512 435.97"><g fill="#ffbc33" data-name="Layer 1"><path d="M359.5 0A149 149 0 0 0 256 41.5 149 149 0 0 0 152.5 0C68.4 0 0 70 0 156.2 0 206.1 42.5 268.3 126.4 341c61.3 53.2 123.6 93 124.2 93.4a10 10 0 0 0 10.8 0c.6-.4 62.8-40.2 124.2-93.4C469.5 268.2 512 206 512 156.1 512 70 443.6 0 359.5 0zm13.1 325.8c-49.9 43.3-100.4 77.6-116.6 88.3-16.2-10.7-66.6-44.9-116.4-88.2C61.3 258.1 20 199.4 20 156.2 20 81.1 79.4 20 152.5 20c36.7 0 70.9 15.1 96.2 42.5a10 10 0 0 0 14.1.6l.6-.6C288.6 35.1 322.8 20 359.5 20 432.6 20 492 81.1 492 156.2c0 43.2-41.3 101.8-119.4 169.6z"/><path d="M347.4 55.3l-.4.1a10 10 0 0 0 1.7 19.9 11 11 0 0 0 1.8-.2h.2a10 10 0 0 0-3.3-19.8zm91.7 38.1A96.84 96.84 0 0 0 390 58a10 10 0 1 0-5.9 19.1c32 9.8 54.3 41.1 54.3 76.1a10 10 0 0 0 20 0 101.15 101.15 0 0 0-19.3-59.8z"/></g></svg>