<svg width="50" height="50" viewBox="0 0 50 50" fill="none" xmlns="http://www.w3.org/2000/svg"><rect width="50" height="50" rx="25" fill="#F5F8FA"/><path opacity=".24" d="M15 22a4 4 0 0 1 4-4h12a4 4 0 0 1 4 4v8a4 4 0 0 1-4 4H19a4 4 0 0 1-4-4v-8z" fill="url(#a)"/><path d="M31 18H19m12 0a4 4 0 0 1 4 4v8a4 4 0 0 1-4 4H19a4 4 0 0 1-4-4v-8a4 4 0 0 1 4-4m12 0a2 2 0 0 1-2-2 2 2 0 0 0-2-2h-4a2 2 0 0 0-2 2 2 2 0 0 1-2 2" stroke="url(#b)" stroke-width="2" stroke-linecap="round" stroke-linejoin="round"/><defs><linearGradient id="a" x1="34.9" y1="14.085" x2="14.517" y2="34.841" gradientUnits="userSpaceOnUse"><stop stop-color="#37D4EE"/><stop offset=".75" stop-color="#236EDE"/></linearGradient><linearGradient id="b" x1="34.9" y1="14.085" x2="14.517" y2="34.841" gradientUnits="userSpaceOnUse"><stop stop-color="#37D4EE"/><stop offset=".75" stop-color="#236EDE"/></linearGradient></defs></svg>