<svg data-name="Layer 1" xmlns="http://www.w3.org/2000/svg" width="50" height="50" viewBox="0 0 50 50"><path d="M50 25A25 25 0 1 0 9.47 44.58c1-4.54 5.32-7.14 10-8.25a1.45 1.45 0 0 0 1.11-1.53L18 34.35c-3.14-.55-4.27-1.52-3.77-3.47 1.13-4.41 1.18-4.82 2.39-9 1.09-3.71 3.46-6.56 8.32-6.56s7.23 2.85 8.32 6.56c1.2 4.14 1.28 4.55 2.38 9 .52 1.95-.61 2.92-3.77 3.47l-2.56.45a1.45 1.45 0 0 0 1.1 1.53c4.68 1.11 9 3.71 10 8.25A24.91 24.91 0 0 0 50 25z" fill="#1b3a4f"/><path d="M30.53 36.33a1.45 1.45 0 0 1-1.11-1.53l2.58-.45c3.15-.55 4.28-1.52 3.77-3.47-1.13-4.41-1.18-4.82-2.39-9-1.09-3.71-3.46-6.56-8.32-6.56s-7.23 2.85-8.32 6.56c-1.2 4.14-1.28 4.55-2.38 9-.5 1.95.62 2.92 3.77 3.47l2.56.45a1.45 1.45 0 0 1-1.1 1.53c-4.68 1.11-9 3.71-10 8.25a24.94 24.94 0 0 0 31.05 0c-1.13-4.58-5.38-7.14-10.11-8.25z" fill="#e0f7ff"/></svg>