<svg data-name="Layer 1" xmlns="http://www.w3.org/2000/svg" width="50" height="50" viewBox="0 0 50 50"><g data-name="Layer 1-2"><path d="M50 25.2A25 25 0 1 0 9.3 44.3v-10l15.8-13 15.8 13v10A24.84 24.84 0 0 0 50 25.2zM25.1 19l-19 15.7a1.45 1.45 0 0 1-.7.2.86.86 0 0 1-.6-.3L3 32.7a.94.94 0 0 1 .1-1.3L22.8 15a3.32 3.32 0 0 1 2.1-.7 3.14 3.14 0 0 1 2.1.7l6.7 5.6v-5.3a1.07 1.07 0 0 1 .2-.6.86.86 0 0 1 .6-.3H40a.88.88 0 0 1 .9.8v11.2l6 5a.71.71 0 0 1 .3.6c0 .2 0 .5-.2.6l-1.7 2a.55.55 0 0 1-.6.4h-.1a1.42 1.42 0 0 1-.6-.2z" fill="#1b3a4f"/><path d="M21.5 38.9v10.8a20.68 20.68 0 0 0 3.5.3 19.83 19.83 0 0 0 3.5-.3V38.9z" fill="#1b3a4f"/><path d="M40.9 34.3l-15.8-13-15.8 13v10a24.31 24.31 0 0 0 12.3 5.3V38.9h7v10.8a25.61 25.61 0 0 0 12.3-5.3V34.3z" fill="#e0f7ff"/><path d="M44.6 35a.91.91 0 0 0 .7-.3l1.7-2a.93.93 0 0 0-.1-1.3l-6-4.9V15.3a.88.88 0 0 0-.8-.9h-5.3a.71.71 0 0 0-.6.3c-.2.2-.3.4-.2.6v5.3L27.3 15a3.5 3.5 0 0 0-4.2 0L3.2 31.4a.85.85 0 0 0 0 1.3l1.7 2a.86.86 0 0 0 .6.3 1 1 0 0 0 .7-.2L25.1 19l19 15.7a.55.55 0 0 0 .5.3z" fill="#e0f7ff"/></g></svg>