<svg data-name="Layer 1" xmlns="http://www.w3.org/2000/svg" width="50" height="50" viewBox="0 0 50 50"><path d="M25 0A25 25 0 0 0 7.34 42.68c.55.54 1.11 1.06 1.7 1.55a8.12 8.12 0 0 1 4.63-2.92l5.58-1.48.45-2a10.48 10.48 0 0 1-2.65-5.45 2.4 2.4 0 0 1-1.77-1.91l-.43-3a2.46 2.46 0 0 1 .59-1.76 2.38 2.38 0 0 1 1-.59 29.34 29.34 0 0 1-.27-3.12c0-2.8.88-5.75 7.21-5.89A9.74 9.74 0 0 1 29 14.67a6.38 6.38 0 0 1 5.58 2.56c1.28 2.22.74 3.68-.14 4.56l-.59.59-.18 2.62a2.78 2.78 0 0 1 .88.59 2.11 2.11 0 0 1 .59 1.76l-.43 2.94a2.25 2.25 0 0 1-1.63 1.92 10.2 10.2 0 0 1-2.79 5.61l.44 1.91 5.59 1.48a8.55 8.55 0 0 1 4.64 3c.59-.49 1.15-1 1.69-1.54A25 25 0 0 0 25 0z" fill="#1b3a4f"/><path d="M40.82 44.33l.14-.11a8.54 8.54 0 0 0-4.64-3l-5.59-1.48-.44-1.87a10.24 10.24 0 0 0 2.79-5.6 2.24 2.24 0 0 0 1.63-1.91l.43-2.95a2.12 2.12 0 0 0-.59-1.76 2.78 2.78 0 0 0-.88-.59l.15-2.65.59-.59c.88-.89 1.47-2.35.14-4.56A6.39 6.39 0 0 0 29 14.64a9.75 9.75 0 0 0-5.59 1.48c-6.33.14-7.21 3.09-7.21 5.88a29.09 29.09 0 0 0 .29 3.09 2.38 2.38 0 0 0-1 .59 2.49 2.49 0 0 0-.59 1.77l.43 2.95a2.41 2.41 0 0 0 1.77 1.91 10.51 10.51 0 0 0 2.65 5.51l-.45 2-5.58 1.48A8 8 0 0 0 9 44.23a.41.41 0 0 0 .13.1 24.74 24.74 0 0 0 12.3 5.39 23.54 23.54 0 0 0 3.36.27h.33a23.66 23.66 0 0 0 3.36-.27 24.78 24.78 0 0 0 12.34-5.39z" fill="#e0f7ff"/></svg>