<svg width="682.667" height="682.667" viewBox="0 0 682.66669 682.66669" xmlns="http://www.w3.org/2000/svg"><defs><clipPath id="a"><path d="M0 512h512V0H0z"/></clipPath></defs><g clip-path="url(#a)" transform="matrix(1.33333 0 0 -1.33333 0 682.667)"><path d="M402.79 358.69h49.627c9.145 0 16.559-7.414 16.559-16.559V82.691c0-9.145-7.414-16.559-16.559-16.559H59.583c-9.146 0-16.559 7.414-16.559 16.56v259.44c0 9.144 7.413 16.558 16.559 16.558h50.888" fill="none" stroke="#fb3" stroke-width="15" stroke-linecap="round" stroke-linejoin="round" stroke-miterlimit="10"/><path d="M482.856 13.169H29.144c-11.85 0-21.458 9.606-21.458 21.457v18.069c0 7.42 6.017 13.438 13.438 13.438h469.752c7.42 0 13.438-6.017 13.438-13.438v-18.07c0-11.85-9.607-21.456-21.459-21.456zM407.335 331.495h18.088c6.138 0 11.113-4.976 11.113-11.113v-215.94c0-6.138-4.975-11.114-11.113-11.114H86.577c-6.138 0-11.113 4.976-11.113 11.113v32.854M75.464 172.182v148.2c0 6.138 4.976 11.113 11.113 11.113h18.775" fill="none" stroke="#fb3" stroke-width="15" stroke-linecap="round" stroke-linejoin="round" stroke-miterlimit="10"/><path d="M287.86 40.363h-63.72c-10.03 0-18.163 8.133-18.163 18.164v7.606h100.045v-7.606c0-10.03-8.132-18.164-18.163-18.164zM335.014 304.533h-8.257v55.764h8.257c15.398 0 27.88-12.484 27.88-27.882 0-15.399-12.482-27.882-27.88-27.882zM189.423 298.354V237.24c0-13.887 11.258-25.145 25.145-25.145 13.886 0 25.144 11.258 25.144 25.145v57.344" fill="none" stroke="#fb3" stroke-width="15" stroke-linecap="round" stroke-linejoin="round" stroke-miterlimit="10"/><path d="M375.981 409.284c19.661-25.535 31.354-57.524 31.354-92.244 0-83.58-67.755-151.335-151.335-151.335-83.58 0-151.335 67.755-151.335 151.335 0 83.58 67.754 151.335 151.335 151.335 36.265 0 69.551-12.757 95.616-34.028M372.818 463.642l29.972 35.193M399.444 437.44l69.531 52.402M415.158 406.46l46.984 9.196" fill="none" stroke="#fb3" stroke-width="15" stroke-linecap="round" stroke-linejoin="round" stroke-miterlimit="10"/><path d="M208.373 298.354h-25.207c-18.812 0-34.061 15.25-34.061 34.061s15.249 34.06 34.061 34.06h25.207zM208.373 366.476V298.355s68.068 2.318 108.164-53.147c3.211-4.442 10.22-2.206 10.22 3.277v167.86c0 5.484-7.009 7.72-10.22 3.277-40.096-55.464-108.164-53.146-108.164-53.146z" fill="none" stroke="#fb3" stroke-width="15" stroke-linecap="round" stroke-linejoin="round" stroke-miterlimit="10"/></g></svg>