<svg xmlns="http://www.w3.org/2000/svg" viewBox="0 0 512 512"><g fill="none" stroke="#fb3" stroke-width="15" stroke-linecap="round" stroke-linejoin="round" stroke-miterlimit="10"><path d="M433.13 38.13h55.06c9.01 0 16.31 7.3 16.31 16.31v403.12c0 9.01-7.3 16.31-16.31 16.31H183.18M7.5 174.14V54.44c0-9.01 7.3-16.31 16.31-16.31h374.32M7.5 209.14v248.42c0 9.01 7.3 16.31 16.31 16.31h124.37M501.788 101.775H10.212M42.07 69.952"/><g><path d="M162.835 236.913c0 17.824-14.45 32.274-32.274 32.274s-32.274-14.45-32.274-32.274c0-17.825 14.45-32.274 32.274-32.274v-37.744c-38.67 0-70.018 31.348-70.018 70.018s31.348 70.018 70.018 70.018 70.018-31.348 70.018-70.018h-37.744zM192.838 206.91h37.744c0-38.67-31.348-70.018-70.018-70.018v37.744c17.824 0 32.274 14.449 32.274 32.274zM97.286 236.913H64.065M130.561 270.187v32.781M277.854 270.187v-78.57a5 5 0 0 1 5-5h42.073M327.119 268.982V166.755a5 5 0 0 1 5-5h41.909M425.649 272.485h-49.265V141.891a5 5 0 0 1 5-5h38.05a6.215 6.215 0 0 1 6.215 6.215v129.379z"/><path d="M333.29 306.93h115.17c2.76 0 5-2.24 5-5v-24.48c0-2.77-2.24-5-5-5H255.04c-2.76 0-5 2.23-5 5v24.48c0 2.76 2.24 5 5 5h43.25"/><g><circle cx="263.998" cy="420.802" r="13.953"/><circle cx="322.5" cy="362.3" r="13.953"/><circle cx="381.002" cy="420.802" r="13.953"/><circle cx="439.505" cy="362.3" r="13.953"/><path d="M310.801 373.999l-35.104 35.104M334.199 373.999l35.104 35.104M427.805 373.999l-35.103 35.104"/></g><path d="M60.542 348.347h20.134M60.542 391.551h20.134M60.542 434.756h20.134M115.679 348.347h141.599M115.679 391.551h70.007M115.679 434.756h100.01"/></g></g></svg>