<svg height="512" viewBox="0 0 512 512" width="512" xmlns="http://www.w3.org/2000/svg"><g fill="#FB3"><path d="M449.862 279.859v-23.706a7.515 7.515 0 1 0-15.03 0v17.514a111.676 111.676 0 0 0-34.95-5.585c-.875 0-1.757.019-2.639.04V162.771a7.515 7.515 0 0 0-7.515-7.515h-2.974l29.283-31.132 29.283 31.132h-2.974a7.515 7.515 0 0 0-7.515 7.515v64.055c0 4.151 3.364 7.515 7.515 7.515s7.515-3.364 7.515-7.515v-56.54h12.844c6.387.212 10.003-8.157 5.474-12.663l-46.668-49.614c-2.819-3.127-8.129-3.127-10.947 0l-46.668 49.614c-4.53 4.507-.912 12.875 5.474 12.663h12.844v56.379a109.923 109.923 0 0 0-39.892-39.249v-91.3h12.844c6.387.212 10.003-8.158 5.474-12.663L313.972 33.84c-2.819-3.127-8.129-3.127-10.947 0l-46.668 49.613c-4.531 4.506-.912 12.876 5.474 12.663h12.844v77.762a108.854 108.854 0 0 0-39.891 13.061V149.07h12.844c6.387.212 10.003-8.158 5.474-12.664l-46.668-49.613c-2.819-3.127-8.129-3.127-10.947 0l-46.668 49.613c-4.53 4.507-.912 12.875 5.474 12.664h12.844v103.046a97.564 97.564 0 0 0-10.791-.607 96.679 96.679 0 0 0-29.101 4.465V84.306h12.844c6.387.212 10.003-8.157 5.474-12.663l-46.67-49.615c-2.818-3.127-8.129-3.127-10.947 0L41.277 71.642c-4.531 4.507-.912 12.875 5.474 12.663h12.844v61.639a7.515 7.515 0 1 0 15.03 0V76.791a7.514 7.514 0 0 0-7.515-7.515h-2.974l29.283-31.132 29.283 31.132h-2.974a7.515 7.515 0 0 0-7.515 7.515v185.354c-15.344 7.872-28.327 19.714-37.59 34.162V176.004a7.515 7.515 0 1 0-15.03 0v165.533c-.024.341-.054.682-.075 1.024C25.168 350.072 0 380.811 0 416.555c0 41.775 33.987 75.762 75.762 75.762h231.09a7.515 7.515 0 1 0 0-15.03H75.762c-33.488 0-60.733-27.245-60.733-60.733 0-30.396 22.702-56.277 52.806-60.2a7.516 7.516 0 0 0 6.544-7.48 14.139 14.139 0 0 0-.01-.431c.036-45.171 36.796-81.907 81.975-81.907a81.653 81.653 0 0 1 29.014 5.301c4.247 1.729 9.393-1.212 10.066-5.746 7.828-45.208 46.852-78.021 92.791-78.021 49.74 0 91.035 38.86 94.014 88.469.758 9.347 11.284 6.526 17.655 6.573 53.535 0 97.088 43.554 97.088 97.088s-43.553 97.088-97.088 97.088H336.91a7.515 7.515 0 1 0 0 15.03h62.972C461.704 492.318 512 442.022 512 380.2c0-43.873-25.334-81.934-62.138-100.341zM308.498 49.956l29.283 31.131h-2.973a7.515 7.515 0 0 0-7.515 7.515v91.672c-11.718-4.504-24.388-7.036-37.589-7.214V88.601a7.515 7.515 0 0 0-7.515-7.515h-2.974zM182.421 255.07c-.085-.024-.172-.044-.257-.067V141.554a7.515 7.515 0 0 0-7.515-7.515h-2.973l29.283-31.131 29.283 31.131h-2.973a7.515 7.515 0 0 0-7.515 7.515v55.526c-17.977 14.44-31.354 34.537-37.333 57.99z"/><path d="M283.178 340.991a7.515 7.515 0 1 0 0-15.03h-35.189a7.515 7.515 0 0 0-7.515 7.515v83.515a7.515 7.515 0 0 0 7.515 7.515h35.189a7.515 7.515 0 1 0 0-15.03h-27.675v-26.728h25.08a7.515 7.515 0 1 0 0-15.03h-25.08V340.99h27.675zM194.1 409.861c-9.216 0-18.114-3.748-23.802-10.025a7.517 7.517 0 0 0-10.615-.523 7.516 7.516 0 0 0-.523 10.615c8.49 9.369 21.551 14.963 34.939 14.963 16.034 0 30.003-10.516 32.493-24.461 2.872-16.086-9.777-26.862-22.573-31.581-10.846-4.001-20.907-8.369-23.447-9.484-2.693-1.974-4-5.126-3.51-8.536.616-4.293 3.914-7.738 8.823-9.216 13.522-4.076 25.741 5.723 25.982 5.92a7.515 7.515 0 0 0 9.644-11.527c-.746-.626-18.482-15.252-39.962-8.784-10.497 3.163-17.917 11.39-19.365 21.472-1.347 9.388 2.718 18.414 10.609 23.559.332.217.681.407 1.043.568.484.215 12.002 5.342 24.98 10.129 9.318 3.437 14.049 8.846 12.979 14.84-1.043 5.85-7.6 12.071-17.695 12.071zM397.404 375.233c0-27.381-22.276-49.656-49.656-49.656-27.381 0-49.657 22.276-49.657 49.656 0 27.381 22.276 49.656 49.657 49.656 27.38.001 49.656-22.275 49.656-49.656zm-84.284 0c0-19.094 15.534-34.627 34.627-34.627s34.627 15.533 34.627 34.627-15.534 34.627-34.627 34.627c-19.093.001-34.627-15.533-34.627-34.627z"/></g></svg>