<svg width="682.667" height="682.667" viewBox="0 0 682.66669 682.66669" xmlns="http://www.w3.org/2000/svg"><defs><clipPath id="a"><path d="M0 512h512V0H0z"/></clipPath></defs><path d="M271.413 108.22h283.25" fill="none" stroke="#fb3" stroke-width="19.99995" stroke-linecap="round" stroke-linejoin="round" stroke-miterlimit="10"/><g clip-path="url(#a)" transform="matrix(1.33333 0 0 -1.33333 0 682.667)"><path d="M83.919 140.36h-35.39c-15.787 0-28.586 12.8-28.586 28.586V402.25c0 15.787 12.799 28.586 28.586 28.586h7.7M482.386 331V168.946c0-15.787-12.8-28.586-28.586-28.586l-277.93-.001M186.168 394.281h237.418M19.943 394.281H73.62M154.105 430.835c0-13.371-10.84-24.211-24.211-24.211-13.371 0-24.21 10.84-24.21 24.211 0 13.371 10.839 24.21 24.21 24.21 13.37 0 24.21-10.839 24.21-24.21z" fill="none" stroke="#fb3" stroke-width="15" stroke-linecap="round" stroke-linejoin="round" stroke-miterlimit="10"/><path d="M203.559 418.58v24.51l-22.32 4.698a53.63 53.63 0 0 1-3.053 7.361l12.463 19.11-17.331 17.331-19.11-12.463a53.75 53.75 0 0 1-7.36 3.052L142.15 504.5h-24.511l-4.698-22.32a53.75 53.75 0 0 1-7.361-3.053L86.47 491.59 69.14 474.258l12.463-19.109a53.75 53.75 0 0 1-3.052-7.36l-22.321-4.699v-24.51l22.32-4.699a53.816 53.816 0 0 1 3.053-7.362l-12.463-19.108 17.332-17.33 19.109 12.462a53.63 53.63 0 0 1 7.36-3.053l4.699-22.32h24.51l4.699 22.32a53.63 53.63 0 0 1 7.36 3.053l19.11-12.463 17.33 17.331-12.462 19.108a53.695 53.695 0 0 1 3.053 7.362zM154.104 288.795H77.709v28.991h76.395zM261.164 324.16l23.314 23.313a6.954 6.954 0 0 0 9.86 0l36.296-36.287a6.957 6.957 0 0 1 9.858 0l102.068 102.07h-12.407c-4 0-7.625 1.624-10.244 4.243a14.476 14.476 0 0 0-4.244 10.255c0 8 6.488 14.488 14.488 14.488h47.608c7.9 0 14.296-6.396 14.296-14.285V380.35c0-4.01-1.624-7.625-4.245-10.254a14.468 14.468 0 0 0-10.254-4.245c-8 0-14.498 6.49-14.498 14.5v12.396L340.492 270.19a6.944 6.944 0 0 0-9.849 0l-36.306 36.297c-2.72 2.721-7.128 2.721-9.859 0l-61.547-61.557c-5.656-5.666-14.834-5.666-20.499 0a14.434 14.434 0 0 0-4.245 10.244c0 3.716 1.412 7.422 4.245 10.255l33.737 33.736M294.58 190.482h142.143M352.452 223.387h84.271M77.71 260.31h52.184M251.164 7.5c-7.009 0-12.69 5.682-12.69 12.691v120.172h25.381V20.191c0-7.009-5.68-12.691-12.69-12.691zM200.731 140.36L169.214 17.047A12.69 12.69 0 0 0 156.918 7.5h-2.594c-8.284 0-14.348 7.807-12.296 15.834l22.057 86.302M345.41 7.5h2.595c8.284 0 14.347 7.808 12.296 15.834l-29.91 117.029h-28.794l31.517-123.314A12.692 12.692 0 0 1 345.41 7.5z" fill="none" stroke="#fb3" stroke-width="15" stroke-linecap="round" stroke-linejoin="round" stroke-miterlimit="10"/><path d="M175.871 140.36c0-25.393-20.587-45.974-45.979-45.974-3.56 0-7.03.407-10.36 1.171-20.4 4.701-35.613 22.972-35.613 44.803 0 21.831 15.213 40.102 35.612 44.803 3.33.763 6.8 1.17 10.361 1.17 25.392 0 45.98-20.58 45.98-45.973zM129.894 150.474v-20.228" fill="none" stroke="#fb3" stroke-width="15" stroke-linecap="round" stroke-linejoin="round" stroke-miterlimit="10"/></g></svg>