<svg height="511pt" viewBox="0 -72 511.99989 511" width="511pt" xmlns="http://www.w3.org/2000/svg"><path fill="#FB3" d="M221.004 335.465c-20.61-5.977-40.484-15.82-57.566-28.402a184.651 184.651 0 0 1-31.52-29.508c-8.883-10.52-16.98-22.676-23.246-34.973a180.918 180.918 0 0 1-8.93-20.59c-5.226-14.426-8.605-29.504-10.094-44.773-2.925-29.989 1.618-60.371 13.102-88 1.207-.23 1.605-.309 2.082-.45 5.555-1.656 10.852-4.433 15.316-8.023 11.758-9.46 18.309-23.047 18.442-38.258.12-13.59-5.02-27.87-14.102-39.18A7.509 7.509 0 0 0 116.141.93c-13.684 4.816-25.582 14.234-32.649 25.847-7.906 12.993-9.508 27.993-4.508 42.23 1.899 5.407 4.934 10.56 8.782 14.9.191.214.37.398.66.667a195.298 195.298 0 0 0-6.328 17.953c-5.48-8.402-13.426-14.894-23.215-18.797-12.625-5.027-27.797-5.402-41.625-1.027a7.513 7.513 0 0 0-5.242 6.922c-.461 14.496 4.02 29 12.285 39.785 9.25 12.074 22.656 18.996 37.738 19.488a45.256 45.256 0 0 0 12.078-1.285c-.492 8.23-.469 16.5.07 24.758-9.527-7.48-21.273-11.098-33.8-10.266-13.563.903-27.414 7.106-38.008 17.012a7.511 7.511 0 0 0-1.746 8.504c5.836 13.281 16.125 24.438 28.234 30.61 7.242 3.69 14.922 5.542 22.61 5.542 6.699 0 13.406-1.406 19.84-4.226 3.523-1.543 6.882-3.598 9.937-6.031a196.32 196.32 0 0 0 10.262 28.043c-8.856-2.157-18.188-1.77-27.305 1.257-12.902 4.278-24.754 13.754-32.52 26.004a7.512 7.512 0 0 0 .442 8.668c8.98 11.39 21.742 19.61 35.012 22.543a51.533 51.533 0 0 0 11.125 1.235c10.937 0 21.418-3.625 30.296-10.614 2.973-2.336 5.668-5.113 7.989-8.172a204.918 204.918 0 0 0 3.89 4.766 201.1 201.1 0 0 0 15.547 16.43c-8.144 1.363-15.89 4.808-22.719 10.25-10.632 8.465-18.484 21.453-21.546 35.629a7.512 7.512 0 0 0 3.41 7.984c10.129 6.223 21.902 9.566 33.234 9.566 2.496 0 4.973-.164 7.406-.492 15.07-2.043 27.73-10.246 35.637-23.097 2-3.246 3.582-6.817 4.703-10.52a198.302 198.302 0 0 0 40.703 16.899 7.511 7.511 0 0 0 9.305-5.121 7.513 7.513 0 0 0-5.121-9.31zM91.37 50.309a36.563 36.563 0 0 1 3.246-12.555c4.266-9.297 12.219-16.32 21.406-20.586 13.297 20.285 7.684 41.437-5.289 51.875-3.203 2.578-8.46 6.64-12.453 4.102-6.62-4.211-7.41-15.915-6.91-22.836zm-17.953 145.52a9.763 9.763 0 0 1-.438 2.214c-1.156 3.594-4.3 6.262-7.695 7.75-15.254 6.68-36.601 1.887-48.45-19.277-.66-1.184 12.77-6.805 14.13-7.227 5.508-1.719 11.37-2.484 17.129-1.965 5.633.508 11.172 2.27 15.824 5.54 4.004 2.812 9.922 7.628 9.5 12.964zm-4.242-62.49c-2.114.548-4.48.618-6.653.544-16.64-.54-33.843-14.067-35.414-38.274 23.73-5.062 41.414 7.832 46.45 23.7 1.964 6.183 2.98 12.125-4.383 14.03zm37.023 136.927c-.539 3.425-4.379 6.586-6.918 8.582-13.086 10.297-34.957 11.02-51.742-6.496 6.32-8.118 15.117-14.348 25.32-16.325 8.79-1.699 30.696 1.196 33.278 12.356.148.633.16 1.262.062 1.883zm52.426 65.375c-8.727 14.18-29.004 22.406-50.8 11.757 3.5-10.957 10.925-20.441 21.472-25.332 7.172-3.324 23.336-7.187 30.277-1.496 1.68 1.38 2.477 2.942 2.696 4.586.457 3.485-1.7 7.328-3.645 10.485zm0 0"/><path fill="#FB3" d="M330.39 284c3.602-2.613 5.372-6.965 4.622-11.355l-11.875-69.223 50.297-49.027c3.187-3.106 4.312-7.665 2.937-11.899s-4.965-7.266-9.371-7.902l-69.508-10.102-31.082-62.98a11.544 11.544 0 0 0-10.414-6.473c-4.45 0-8.441 2.48-10.41 6.473l-12.777 25.886a7.51 7.51 0 0 0 13.468 6.649l9.72-19.7 28.82 58.4a11.617 11.617 0 0 0 8.742 6.35l64.445 9.364-46.637 45.457a11.613 11.613 0 0 0-3.336 10.273l11.008 64.188-57.64-30.305a11.591 11.591 0 0 0-10.805 0l-57.64 30.305 11.007-64.184a11.601 11.601 0 0 0-3.34-10.277l-46.633-45.457 64.446-9.363a11.617 11.617 0 0 0 8.742-6.352l3.64-7.375c1.836-3.723.309-8.223-3.41-10.058s-8.222-.31-10.058 3.41l-2.848 5.77-69.504 10.097a11.535 11.535 0 0 0-9.371 7.902c-1.379 4.235-.25 8.793 2.934 11.903l50.296 49.023-11.87 69.227A11.536 11.536 0 0 0 181.601 284a11.579 11.579 0 0 0 6.812 2.23 11.6 11.6 0 0 0 5.414-1.347l62.168-32.684 62.168 32.684a11.53 11.53 0 0 0 12.227-.883zm0 0M228.07 30.004a7.509 7.509 0 1 0 14.86-2.184l-2.953-20.05a7.507 7.507 0 0 0-8.524-6.336 7.509 7.509 0 0 0-6.336 8.52zm0 0M193.664 52.05a7.505 7.505 0 0 0 10.34 2.434 7.518 7.518 0 0 0 2.434-10.34l-10.145-16.386a7.51 7.51 0 0 0-10.34-2.434 7.505 7.505 0 0 0-2.43 10.336zm0 0M276.57 36.34a7.512 7.512 0 0 0 8.523-6.336l2.95-20.05a7.503 7.503 0 0 0-6.336-8.52c-4.094-.606-7.918 2.23-8.523 6.336l-2.95 20.05a7.503 7.503 0 0 0 6.336 8.52zm0 0M309.16 54.484a7.504 7.504 0 0 0 10.336-2.434l10.145-16.39a7.509 7.509 0 1 0-12.77-7.906l-10.144 16.39a7.51 7.51 0 0 0 2.433 10.34zm0 0"/><path fill="#FB3" d="M509.621 179.117c-10.594-9.91-24.445-16.11-38.008-17.012-12.539-.835-24.281 2.786-33.804 10.262.543-8.258.562-16.527.074-24.754a45.199 45.199 0 0 0 10.68 1.305c.468 0 .933-.008 1.398-.023 15.082-.493 28.484-7.41 37.738-19.485 8.266-10.789 12.746-25.289 12.285-39.789a7.508 7.508 0 0 0-5.242-6.918c-13.828-4.379-29-4.004-41.625 1.027-9.789 3.899-17.734 10.391-23.215 18.793a196.39 196.39 0 0 0-6.328-17.949c.29-.273.473-.457.66-.672 3.848-4.34 6.883-9.492 8.782-14.898 5-14.238 3.398-29.234-4.508-42.23-7.067-11.61-18.969-21.032-32.649-25.848a7.504 7.504 0 0 0-8.347 2.383c-9.086 11.304-14.223 25.586-14.102 39.175.133 15.211 6.684 28.801 18.442 38.258 4.464 3.594 9.761 6.371 15.312 8.028.48.14.879.218 2.086.445 11.484 27.633 16.027 58.015 13.102 88-2.825 28.933-12.293 56.347-27.665 80.484a186.116 186.116 0 0 1-14.605 19.852 184.817 184.817 0 0 1-21.523 21.594c-6.118 5.199-12.22 10.171-19.102 14.273-6.797 4.047-13.738 8.187-20.883 11.578a183.44 183.44 0 0 1-27.578 10.469 7.509 7.509 0 0 0 2.086 14.723c.695 0 1.398-.098 2.098-.297a198.302 198.302 0 0 0 40.703-16.899c1.12 3.707 2.703 7.274 4.703 10.52 4.582 7.449 10.648 13.289 18.027 17.351 3.633 2 8.2.68 10.203-2.953 2-3.633.676-8.2-2.957-10.2-5.074-2.796-9.277-6.858-12.484-12.07-3.645-5.921-4.824-12.503 2.652-15.437 20.934-8.203 41.828 7.434 48.137 27.16a49.638 49.638 0 0 1-10.332 3.578c-4.043.914-6.578 4.938-5.664 8.98a7.512 7.512 0 0 0 8.984 5.665c6.942-1.57 13.575-4.281 19.711-8.05a7.508 7.508 0 0 0 3.41-7.981c-3.058-14.18-10.914-27.168-21.546-35.633-6.829-5.438-14.57-8.887-22.72-10.25a201.011 201.011 0 0 0 15.548-16.426 195.674 195.674 0 0 0 3.894-4.77 44.984 44.984 0 0 0 7.985 8.176c8.878 6.989 19.359 10.61 30.3 10.61 3.668 0 7.391-.407 11.121-1.235 13.27-2.933 26.032-11.152 35.012-22.539a7.519 7.519 0 0 0 .445-8.672c-7.769-12.25-19.62-21.726-32.523-26.004-9.117-3.027-18.45-3.41-27.305-1.257a196.32 196.32 0 0 0 10.262-28.043c3.055 2.437 6.418 4.492 9.938 6.035 6.437 2.82 13.14 4.223 19.84 4.223 7.687 0 15.367-1.852 22.609-5.543 12.11-6.172 22.402-17.329 28.234-30.61a7.516 7.516 0 0 0-1.746-8.5zM420.06 59.597c-.957 4.766-2.051 12.79-8.106 13.696-4.215.633-7.558-1.73-10.691-4.25-12.969-10.441-18.586-31.59-5.285-51.875 1.109-1.695 14.617 10.398 15.793 11.789 3.675 4.356 6.402 9.5 7.82 15.027 1.305 5.086 1.5 10.461.469 15.614zm44.398 212.755c-16.781 17.515-38.652 16.793-51.738 6.496-2.918-2.297-5.457-5.23-7.36-8.516a66.63 66.63 0 0 1-.394-.894c.64-.961 1.273-1.93 1.898-2.899 1.965-2.32 4.274-4.351 6.793-5.945 14.07-8.903 35.903-7.383 50.801 11.758zm-26.02-153.043c5.04-15.871 22.72-28.758 46.45-23.7-1.567 24.207-18.774 37.735-35.414 38.274-4.016.137-10.477.18-12.22-4.258-1.241-3.164.22-7.266 1.184-10.316zm8.274 86.484c-3.336-1.465-7.375-3.227-8.98-6.738-3.5-7.645 8.175-14.504 13.16-17.348 4.062-2.32 8.586-3.805 13.218-4.402 11.168-1.442 22.239 2.433 31.055 9.21-11.851 21.169-33.203 25.958-48.453 19.278zm0 0"/></svg>