<svg id="Layer_2" xmlns="http://www.w3.org/2000/svg" viewBox="0 0 37.53 37.53"><defs><style>.cls-1{fill:#465687;stroke-width:0}</style></defs><g id="Layer_1-2"><path class="cls-1" d="M18.77 3.38c5.01 0 5.6.02 7.58.11 1.83.08 2.82.39 3.48.65.88.34 1.5.75 2.16 1.4.66.66 1.06 1.28 1.4 2.16.26.66.56 1.65.65 3.48.09 1.98.11 2.57.11 7.58s-.02 5.6-.11 7.58c-.08 1.83-.39 2.82-.65 3.48-.34.88-.75 1.5-1.4 2.16s-1.28 1.06-2.16 1.4c-.66.26-1.65.56-3.48.65-1.98.09-2.57.11-7.58.11s-5.6-.02-7.58-.11c-1.83-.08-2.82-.39-3.48-.65-.88-.34-1.5-.75-2.16-1.4-.66-.66-1.06-1.28-1.4-2.16-.26-.66-.56-1.65-.65-3.48-.09-1.98-.11-2.57-.11-7.58s.02-5.6.11-7.58c.08-1.83.39-2.82.65-3.48.34-.88.75-1.5 1.4-2.16s1.28-1.06 2.16-1.4c.66-.26 1.65-.56 3.48-.65 1.98-.09 2.57-.11 7.58-.11m0-3.38c-5.1 0-5.74.02-7.74.11S7.67.52 6.47.98c-1.23.48-2.28 1.12-3.32 2.16S1.47 5.23.99 6.46C.53 7.65.21 9.02.12 11.02c-.09 2-.11 2.64-.11 7.74s.02 5.74.11 7.74.41 3.36.87 4.56c.48 1.23 1.12 2.28 2.16 3.32s2.09 1.68 3.32 2.16c1.19.46 2.56.78 4.56.87 2 .09 2.64.11 7.74.11s5.74-.02 7.74-.11 3.36-.41 4.56-.87c1.23-.48 2.28-1.12 3.32-2.16s1.68-2.09 2.16-3.32c.46-1.19.78-2.56.87-4.56.09-2 .11-2.64.11-7.74s-.02-5.74-.11-7.74-.41-3.36-.87-4.56c-.48-1.23-1.12-2.28-2.16-3.32S32.3 1.46 31.07.98C29.88.52 28.51.2 26.51.11c-2-.09-2.64-.11-7.74-.11z"/><path class="cls-1" d="M18.77 9.13c-5.32 0-9.64 4.31-9.64 9.64s4.31 9.64 9.64 9.64 9.64-4.31 9.64-9.64-4.31-9.64-9.64-9.64zm0 15.89c-3.45 0-6.26-2.8-6.26-6.26s2.8-6.26 6.26-6.26 6.26 2.8 6.26 6.26-2.8 6.26-6.26 6.26z"/><circle class="cls-1" cx="28.78" cy="8.75" r="2.25"/></g></svg>