<svg id="Layer_2" xmlns="http://www.w3.org/2000/svg" viewBox="0 0 254.56 61.76"><defs><style>.cls-1{stroke-width:0}.cls-1,.cls-2{fill:#465687}.cls-3{letter-spacing:.11em}.cls-2{font-family:Montserrat-Bold,Montserrat;font-size:11.86px;font-weight:700}.cls-4,.cls-5{letter-spacing:.18em}</style></defs><g id="Layer_1-2"><path class="cls-1" d="M28.86 28.16l5.44-9.85c.8-1.41 2.01-2.11 3.63-2.11h4.84v26.09h-5.44V23.23l-7.26 13.36h-2.42l-7.26-13.36v19.06h-5.44V16.2h4.84c1.61 0 2.82.7 3.63 2.11l5.44 9.85z"/><path class="cls-1" d="M11.98 43l-.14 2.57C7.62 41.27 5 35.38 5 28.87 5 15.69 15.69 5 28.87 5c4.45 0 7.94 1.24 11.52 2.99l-3.91-6.84C33.98.42 31.39 0 28.87 0 12.92 0 0 12.92 0 28.87 0 36.8 3.2 43.98 8.38 49.2l-.35.16-3.55 1.65 8.65 2.01 7.86 1.83-4.23-5.56-4.78-6.28z"/><path class="cls-1" d="M50.16 9.38l2.44-.88-13.94-5.2L47.1 18l.55-3.85c3.18 4.05 5.07 9.15 5.07 14.7 0 13.18-10.69 23.87-23.87 23.87-3.47 0-7.2-1.01-10.25-2.38l5.2 6.88c1.69.32 3.39.5 5.05.5 15.94 0 28.87-12.92 28.87-28.87 0-7.5-2.87-14.33-7.57-19.46zM86.93 30.42l6.47-11.7c.95-1.67 2.39-2.51 4.31-2.51h5.75v24.23h-6.47V24.56l-8.62 15.88H85.5l-8.63-15.88v15.88H70.4V16.21h5.75c1.92 0 3.36.84 4.31 2.51l6.47 11.7zM111.69 16.21h14.37c4.31 0 6.47 2.23 6.47 6.69v10.86c0 4.46-2.16 6.68-6.47 6.68h-14.37c-4.31 0-6.47-2.23-6.47-6.68V22.9c0-4.46 2.16-6.69 6.47-6.69zm0 8.35v7.52c0 1.66.96 2.5 2.88 2.51h8.63c1.91 0 2.87-.84 2.87-2.51v-7.52c0-1.67-.96-2.51-2.87-2.51h-8.63c-1.92 0-2.88.84-2.88 2.51zM147.23 32.87l7.91-16.66h6.47l-10.78 24.23h-7.19l-10.78-24.23h6.47l7.91 16.66zM184.2 22.06v-5.85h-17.96c-2.88 0-4.31 1.67-4.31 5.01v14.21c0 3.35 1.44 5.01 4.31 5.01h17.96v-5.85h-15.81v-3.34h12.24l-.02-5.85-12.22.02v-3.36h15.81zM200.39 16.21h14.37c4.31 0 6.47 2.23 6.47 6.69v10.86c0 4.46-2.16 6.68-6.47 6.68h-14.37c-4.31 0-6.47-2.23-6.47-6.68V22.9c0-4.46 2.16-6.69 6.47-6.69zm0 8.35v7.52c0 1.66.96 2.5 2.88 2.51h8.62c1.92 0 2.88-.84 2.88-2.51v-7.52c0-1.67-.96-2.51-2.88-2.51h-8.62c-1.92 0-2.88.84-2.88 2.51zM228.74 16.21c1.92 0 3.6.84 5.03 2.51l10.78 14.2V16.21h6.47v24.23h-5.75c-1.92 0-3.59-.83-5.03-2.51l-10.78-14.2v16.71h-6.47V16.21h5.75zM253.13 16.51h-.45v1.44h-.31v-1.44h-.45v-.3h1.22v.3zM254.56 17.95h-.31v-.91l-.25.62h-.16l-.25-.62v.91h-.31v-1.74h.29l.35.86.35-.86h.29v1.74z"/><text class="cls-2" transform="translate(80.42 58.26)"><tspan class="cls-5" x="0" y="0">FITNESS EDU</tspan><tspan class="cls-4" x="103.49" y="0">C</tspan><tspan class="cls-3" x="113.79" y="0">A</tspan><tspan class="cls-5" x="124.2" y="0">TION</tspan></text><path class="cls-1" d="M70.4 49.83v8.42l6.49-4.21-6.49-4.21zM250.97 58.25v-8.42l-6.49 4.21 6.49 4.21z"/></g></svg>