<svg id="Layer_2" xmlns="http://www.w3.org/2000/svg" viewBox="0 0 24.52 24.52"><defs><style>.cls-1{fill:#465687;stroke-width:0}</style></defs><path class="cls-1" d="M12.26 0C5.49 0 0 5.49 0 12.26s5.49 12.26 12.26 12.26 12.26-5.49 12.26-12.26S19.03 0 12.26 0zM8.32 18.86h-2.9V9.53h2.9v9.33zM6.87 8.25c-.93 0-1.68-.75-1.68-1.68s.75-1.68 1.68-1.68 1.68.75 1.68 1.68-.75 1.68-1.68 1.68zm12.31 10.61h-2.9v-4.54c0-1.08-.02-2.47-1.51-2.47s-1.74 1.18-1.74 2.4v4.62h-2.9V9.54h2.78v1.28h.04c.39-.73 1.33-1.51 2.74-1.51 2.94 0 3.48 1.93 3.48 4.45v5.12z" id="Layer_1-2"/></svg>