<?xml version="1.0" encoding="utf-8"?>
<!-- Generator: Adobe Illustrator 18.0.0, SVG Export Plug-In . SVG Version: 6.00 Build 0)  -->
<!DOCTYPE svg PUBLIC "-//W3C//DTD SVG 1.1//EN" "http://www.w3.org/Graphics/SVG/1.1/DTD/svg11.dtd">
<svg version="1.1" id="Capa_1" xmlns="http://www.w3.org/2000/svg" xmlns:xlink="http://www.w3.org/1999/xlink" x="0px" y="0px"
	 viewBox="0 0 512 512" enable-background="new 0 0 512 512" xml:space="preserve">
<g>
	<path fill="#94AEB7" d="M472,81h-35v335c0,24.8-20.2,45-45,45H105v36c0,8.3,6.7,15,15,15h352c8.3,0,15-6.7,15-15V96
		C487,87.7,480.3,81,472,81z"/>
	<path fill="#94AEB7" d="M407,416V15c0-8.3-6.7-15-15-15H40c-8.3,0-15,6.7-15,15v401c0,8.3,6.7,15,15,15h352
		C400.3,431,407,424.3,407,416z M89,144c0-8.3,6.7-15,15-15h80c8.3,0,15,6.7,15,15v144c0,8.3-6.7,15-15,15h-80c-8.3,0-15-6.7-15-15
		V144z M328,367H104c-8.3,0-15-6.7-15-15s6.7-15,15-15h224c8.3,0,15,6.7,15,15S336.3,367,328,367z M328,303h-80c-8.3,0-15-6.7-15-15
		s6.7-15,15-15h80c8.3,0,15,6.7,15,15S336.3,303,328,303z M328,231h-80c-8.3,0-15-6.7-15-15s6.7-15,15-15h80c8.3,0,15,6.7,15,15
		S336.3,231,328,231z M328,167h-80c-8.3,0-15-6.7-15-15s6.7-15,15-15h80c8.3,0,15,6.7,15,15S336.3,167,328,167z M328,95H104
		c-8.3,0-15-6.7-15-15s6.7-15,15-15h224c8.3,0,15,6.7,15,15S336.3,95,328,95z"/>
	<path fill="#94AEB7" d="M119,159h50v114h-50V159z"/>
</g>
</svg>
