<?xml version="1.0" encoding="utf-8"?>
<!-- Generator: Adobe Illustrator 18.0.0, SVG Export Plug-In . SVG Version: 6.00 Build 0)  -->
<!DOCTYPE svg PUBLIC "-//W3C//DTD SVG 1.1//EN" "http://www.w3.org/Graphics/SVG/1.1/DTD/svg11.dtd">
<svg version="1.1" id="Layer_1" xmlns="http://www.w3.org/2000/svg" xmlns:xlink="http://www.w3.org/1999/xlink" x="0px" y="0px"
	 viewBox="0 0 512 512" enable-background="new 0 0 512 512" xml:space="preserve">
<g>
	<path fill="#94AEB7" d="M163.2,205.6C101,204.6,42.8,193.9,0,158.7l0,63.5c61.6,60.2,265.5,60.4,326.4-0.7l0-62.8
		C283.6,193.9,225.4,204.6,163.2,205.6L163.2,205.6z"/>
	<path fill="#94AEB7" d="M162.9,297.2c-63.6-1-115.8-9.4-162.9-36.8l0,46.7c10.6,48.1,100.4,64.5,169,64.2
		c-18.4-20.5-9.5-53.7,17.1-61.5c14.7-4.3,29.1-10.2,43-17.4C208.1,295.5,185.8,297.2,162.9,297.2z"/>
	<path fill="#94AEB7" d="M52.6,155.8c58.7,26.2,162.5,26.2,221.2,0c69.9-28.6,69.9-88.4,0-117c-58.7-26.2-162.5-26.2-221.2,0
		C-17.3,67.4-17.3,127.3,52.6,155.8L52.6,155.8z"/>
	<path fill="#94AEB7" d="M495.8,134.6c-17.4-12.5-41.8-8.6-54.3,8.8L369.1,244c4.6,2.1,9,4.7,13.2,7.7c9,6.9,43,29.5,50,37.7
		l72.4-100.5C517.2,171.5,513.2,147.1,495.8,134.6L495.8,134.6z"/>
	<path fill="#94AEB7" d="M403.2,303.8l-38.5-27.7c-19.3-13.9-45.3-12.7-63.2,2.8c-32.7,28.3-68.7,48.4-107,59.7
		c-2.4,0.7-4.2,2.5-5,4.8c-0.8,2.3-0.3,4.9,1.1,6.9c10.2,13.5,19.8,25.4,29.4,36.1c1.7,1.9,4.2,2.8,6.7,2.4l35.2-5.2L244.5,401
		c-1.4,1.4-2.2,3.4-2.2,5.4c0,2,0.9,4,2.4,5.4c17.7,16.6,36.2,30.5,56.7,42.6c2.8,1.6,6.3,1.3,8.7-0.8l19.8-17.1l-5.4,23.9
		c-0.8,3.4,0.9,6.9,4.1,8.4c17.5,8.4,37,16.1,59.6,23.7c4.8,1.7,10.2-2.3,9.9-7.4c-1.3-35.8,3-64.3,13.2-93
		c3.6-10.9,6.4-19.5,9.8-28C429.6,341.8,422.5,317.6,403.2,303.8L403.2,303.8z"/>
</g>
</svg>
