<?xml version="1.0" encoding="utf-8"?>
<!-- Generator: Adobe Illustrator 18.0.0, SVG Export Plug-In . SVG Version: 6.00 Build 0)  -->
<!DOCTYPE svg PUBLIC "-//W3C//DTD SVG 1.1//EN" "http://www.w3.org/Graphics/SVG/1.1/DTD/svg11.dtd">
<svg version="1.1" id="Capa_1" xmlns="http://www.w3.org/2000/svg" xmlns:xlink="http://www.w3.org/1999/xlink" x="0px" y="0px"
	 viewBox="0 0 3000 5000" enable-background="new 0 0 3000 5000" xml:space="preserve">
<g>
	<g id="Layer_5_59_">
		<g>
			<path fill="#94AEB7" d="M1692.5,3079.8c-53.4,32.7-121.8,50.8-192.5,50.8c-70.8,0-139.2-18-192.5-50.8l-871.7-534.6
				c0,0-78.7-48.2-78.7,61c0,124.1,0,496.3,0,496.3c0,5,0,29.9,0,37.6c0,281.2,511.7,584.4,1142.9,584.4s1142.9-303.2,1142.9-584.4
				c0-7.7,0-32.6,0-37.6c0,0,0-394.8,0-526.4c0-87.7-55.9-44.8-55.9-44.8L1692.5,3079.8z"/>
			<path fill="#94AEB7" d="M2949.8,2119.8c67-41.1,67-108.3,0-149.4l-1328-664.1c-67-41.1-176.6-41.1-243.6,0l-1328,664.1
				c-67,41.1-67,108.3,0,149.4l1328,814.5c67,41.1,176.6,41.1,243.6,0"/>
			<path fill="#94AEB7" d="M2894.8,3327.1c0-224.9,0-899.5,0-899.5s0.6-42.6-24.7-28.5c-20.3,11.3-70,39-87.5,54.2
				c-20.2,17.6-15.7,57-15.7,57s0,612.6,0,816.8c0,11.6-10,17.1-14.7,19.9c-45.9,27-76.8,76.8-76.8,133.9
				c0,85.8,69.6,155.4,155.4,155.4c85.8,0,155.4-69.6,155.4-155.4c0-57.3-31.1-107.3-77.3-134.2
				C2904.4,3344,2894.8,3338.6,2894.8,3327.1z"/>
		</g>
	</g>
</g>
</svg>
