<?xml version="1.0" encoding="utf-8"?>
<!-- Generator: Adobe Illustrator 18.0.0, SVG Export Plug-In . SVG Version: 6.00 Build 0)  -->
<!DOCTYPE svg PUBLIC "-//W3C//DTD SVG 1.1//EN" "http://www.w3.org/Graphics/SVG/1.1/DTD/svg11.dtd">
<svg version="1.1" id="Capa_1" xmlns="http://www.w3.org/2000/svg" xmlns:xlink="http://www.w3.org/1999/xlink" x="0px" y="0px"
	 viewBox="0 0 3000 5000" enable-background="new 0 0 3000 5000" xml:space="preserve">
<g>
	<g>
		<path fill="#94AEB7" d="M2958.7,1898.2l-1412.1-884.8c-28.5-17.9-64.7-17.9-93.2,0L41.3,1898.2c-25.7,16-41.3,44.2-41.3,74.5
			s15.6,58.5,41.3,74.5l1412.1,878.9c14.3,8.9,30.5,13.4,46.6,13.4s32.4-4.5,46.6-13.4l1412.1-878.9c25.7-16,41.3-44.2,41.3-74.5
			S2984.4,1914.2,2958.7,1898.2z"/>
	</g>
</g>
<g>
	<g>
		<path fill="#94AEB7" d="M2958.7,2952.8l-136.8-85.5l-1275.3,793.4c-14.3,8.9-30.5,13.4-46.6,13.4s-32.4-4.5-46.6-13.4
			L178.1,2867.3l-136.8,85.5C15.6,2968.9,0,2997,0,3027.3s15.6,58.5,41.3,74.5l1412.1,884.8c14.3,8.9,30.5,13.4,46.6,13.4
			s32.4-4.5,46.6-13.4l1412.1-884.8c25.7-16,41.3-44.2,41.3-74.5S2984.4,2968.9,2958.7,2952.8z"/>
	</g>
</g>
<g>
	<g>
		<path fill="#94AEB7" d="M2958.7,2425.5l-136.8-85.5l-1275.3,793.4c-14.3,8.9-30.5,13.4-46.6,13.4s-32.4-4.5-46.6-13.4L178.1,2340
			l-136.8,85.5C15.6,2441.5,0,2469.7,0,2500s15.6,58.5,41.3,74.5l1412.1,878.9c14.3,8.9,30.5,13.4,46.6,13.4s32.4-4.5,46.6-13.4
			l1412.1-878.9c25.7-16,41.3-44.2,41.3-74.5S2984.4,2441.5,2958.7,2425.5z"/>
	</g>
</g>
</svg>
