<?xml version="1.0" encoding="utf-8"?>
<!-- Generator: Adobe Illustrator 18.0.0, SVG Export Plug-In . SVG Version: 6.00 Build 0)  -->
<!DOCTYPE svg PUBLIC "-//W3C//DTD SVG 1.1//EN" "http://www.w3.org/Graphics/SVG/1.1/DTD/svg11.dtd">
<svg version="1.1" id="Capa_1" xmlns="http://www.w3.org/2000/svg" xmlns:xlink="http://www.w3.org/1999/xlink" x="0px" y="0px"
	 viewBox="0 0 978.2 978.2" enable-background="new 0 0 978.2 978.2" xml:space="preserve">
<g>
	<g>
		<path fill="#94AEB7" d="M645.7,510.2c0-23.3-17.8-34.3-51.4-34.3h-33.6v71.9h33.6C627.2,547.9,645.7,535.5,645.7,510.2z"/>
		<path fill="#94AEB7" d="M377.1,548.2c35.3,0,57.9-32.2,57.9-82.6c0-50-22.6-80.5-57.9-80.5c-35.3,0-57.9,30.5-57.9,80.5
			C319.2,516,341.8,548.2,377.1,548.2z"/>
		<path fill="#94AEB7" d="M633.7,414.6c0-20.6-14.7-29.1-43.9-29.1h-29.1v62h28.4C620.3,447.5,633.7,435.5,633.7,414.6z"/>
		<g>
			<path fill="#94AEB7" d="M35,187.4v730.8c0,33.1,26.9,60,60,60h535.4l0,0V736.6c0-39.3,31.9-71.2,71.2-71.2h241.6v-478
				c0-33.1-26.9-60-60-60H752.9c-18.2,27.3-49.2,45.2-84.3,45.2c-16.8,0-32.7-4.1-46.7-11.4L524.2,226c-6.8,4.5-14.9-3.6-10.4-10.4
				l58.7-88.3H95C61.9,127.4,35,154.2,35,187.4z M790.6,486.5l-30.8-13.4c-21.9-9.3-45.2-26.7-45.2-59.6c0-35.6,31.5-63,75.4-63
				c26,0,51.4,11,68.9,28.4l-20.2,25.4c-14.4-12-29.5-19.2-48.6-19.2c-21.2,0-35.3,9.9-35.3,26.4c0,17.5,17.1,24,35.6,31.5
				l30.5,12.7c26.4,11.3,45.2,28.1,45.2,60.6c0,36.3-30.1,66.5-80.5,66.5c-30.1,0-59.6-12-80.9-32.9l23.3-27.1
				c16.1,15.1,37.7,25.4,58.2,25.4c25.4,0,39.1-11.3,39.1-28.8C825.2,500.9,810.8,495.1,790.6,486.5z M521,354.6h71.6
				c46.3,0,80.2,14,80.2,55.2c0,21.2-12.3,41.8-38.4,48.6v1.4c32.2,5.5,50,23,50,53.1c0,44.9-36.7,65.8-86,65.8H521L521,354.6
				L521,354.6z M377.1,350.5c58.6,0,99,42.8,99,115.1c0,72.6-40.4,117.2-99,117.2c-58.2,0-98.7-44.5-98.7-117.2
				C278.4,393.3,318.9,350.5,377.1,350.5z M128,524.6c8.9,16.4,21.2,23.6,34.9,23.6c20.9,0,31.5-11.3,31.5-43.2V354.6h39.7v153.8
				c0,40.8-19.9,74.3-66.8,74.3c-31.2,0-52.8-13-66.8-38L128,524.6z"/>
			<path fill="#94AEB7" d="M701.6,706.6c-16.6,0-30,13.4-30,30v222.2v19.4l271.6-271.6h-15.4H701.6L701.6,706.6z"/>
			<path fill="#94AEB7" d="M624.5,127.4c8.1,6.4,17.6,11,28,13.4c5.2,1.2,10.5,1.8,16,1.8c16.6,0,31.9-5.7,44-15.2
				c16.6-13.1,27.3-33.3,27.3-56.1C739.9,31.9,708,0,668.6,0c-39.4,0-71.3,31.9-71.3,71.3c0,5.5,0.6,10.9,1.8,16
				C602.8,103.5,612,117.5,624.5,127.4z"/>
		</g>
	</g>
</g>
</svg>
