<?xml version="1.0" encoding="utf-8"?>
<!-- Generator: Adobe Illustrator 18.0.0, SVG Export Plug-In . SVG Version: 6.00 Build 0)  -->
<!DOCTYPE svg PUBLIC "-//W3C//DTD SVG 1.1//EN" "http://www.w3.org/Graphics/SVG/1.1/DTD/svg11.dtd">
<svg version="1.1" id="Layer_1" xmlns="http://www.w3.org/2000/svg" xmlns:xlink="http://www.w3.org/1999/xlink" x="0px" y="0px"
	 viewBox="0 0 512 512" enable-background="new 0 0 512 512" xml:space="preserve">
<path fill="#94AEB7" d="M221,272H291v30H221V272z"/>
<path fill="#94AEB7" d="M400.9,302H321v30H191v-30h-79.9C66,302,25.9,280.8,0,247.8V453h512V247.8C486.1,280.8,446,302,400.9,302z"
	/>
<path fill="#94AEB7" d="M111.1,272H191v-30H321v30h79.9c60.6,0,110.1-48.8,111.1-109.2V61H359V1H153v60H0v101.8
	C1,223.2,50.5,272,111.1,272z M183,31h146v30H183V31z"/>
</svg>
