<?xml version="1.0" encoding="utf-8"?>
<!-- Generator: Adobe Illustrator 18.0.0, SVG Export Plug-In . SVG Version: 6.00 Build 0)  -->
<!DOCTYPE svg PUBLIC "-//W3C//DTD SVG 1.1//EN" "http://www.w3.org/Graphics/SVG/1.1/DTD/svg11.dtd">
<svg version="1.1" id="Layer_1" xmlns="http://www.w3.org/2000/svg" xmlns:xlink="http://www.w3.org/1999/xlink" x="0px" y="0px"
	 viewBox="0 0 512 512" enable-background="new 0 0 512 512" xml:space="preserve">
<g>
	<path fill="#94AEB7" d="M255.7,343.8c65.9,0.5,99.6-81.6,52.8-127.9c-27.8-29-77.8-29-105.6,0C156.1,262.2,189.8,344.3,255.7,343.8
		z"/>
	<path fill="#94AEB7" d="M357.3,386.7c4.4,4.6,12.2,4.6,16.6,0c4.6-4.6,4.6-12.1,0-16.7l-33.1-33.2c-4.8,6.1-10.5,11.8-16.5,16.8
		L357.3,386.7z"/>
	<path fill="#94AEB7" d="M79.3,512h353.4c11.7,0,21.3-9.5,21.3-21.3V21.3C454,9.5,444.4,0,432.7,0h-256v96c0,9.4-7.6,17-17,17H58
		v377.7C58,502.5,67.6,512,79.3,512z M153.8,306.6h-40.6c-9.4,0-17-7.6-17-17s7.6-17,17-17h34c-0.4-11.2,1-22.5,4-33.4h-38
		c-22.5-0.8-22.5-33.2,0-34h54.4c42.4-60,133.9-60,176.3,0h48.5c22.5,0.8,22.5,33.2,0,34h-32.1c3.1,10.9,4.4,22.2,4,33.4h28.1
		c9.4,0,17,7.6,17,17s-7.6,17-17,17h-33.6l39.1,39.3c28.6,28.3,8,78.5-32.4,78.2c-12.2,0-23.7-4.8-32.3-13.4L293.7,371
		c-20.6,7.8-44.8,8.9-66.2,3.1H113.2c-22.5-0.8-22.5-33.2,0-34h60.3C164.8,330,158.2,318.6,153.8,306.6L153.8,306.6z"/>
	<path fill="#94AEB7" d="M83.5,79h54.8c2.4,0,4.3-1.9,4.3-4.3v-52L83.5,79z"/>
</g>
</svg>
