<?xml version="1.0" encoding="utf-8"?>
<!-- Generator: Adobe Illustrator 18.0.0, SVG Export Plug-In . SVG Version: 6.00 Build 0)  -->
<!DOCTYPE svg PUBLIC "-//W3C//DTD SVG 1.1//EN" "http://www.w3.org/Graphics/SVG/1.1/DTD/svg11.dtd">
<svg version="1.1" id="Layer_1" xmlns="http://www.w3.org/2000/svg" xmlns:xlink="http://www.w3.org/1999/xlink" x="0px" y="0px"
	 viewBox="0 0 3000 5000" enable-background="new 0 0 3000 5000" xml:space="preserve">
<g>
	<g>
		<path fill="#94AEB7" d="M2933.4,2239l-344.1-84.6c-20.7-65.2-47.3-128.5-79.4-189c51.7-86,160.2-267,160.2-267
			c20.8-34.6,15.3-78.9-13.2-107.4l-248.6-248.6c-28.5-28.6-72.7-34.1-107.4-13.2l-267.5,160.2c-60.2-31.8-123.1-58.2-187.9-78.7
			l-84.6-344.1c-9.8-39.1-44.9-66.6-85.2-66.6h-351.6c-40.3,0-75.5,27.5-85.2,66.6c0,0-58.6,240.2-84.5,344
			c-69.1,21.9-135.9,50.3-199.5,85l-277.3-166.4c-34.7-20.6-78.8-15.3-107.4,13.2L321.7,1591c-28.5,28.5-34,72.8-13.2,107.4
			L480,1984.8c-27.6,54.5-50.8,111.2-69.3,169.3L66.6,2239c-39.1,9.8-66.6,44.9-66.6,85.2v351.6c0,40.3,27.5,75.5,66.6,85.2
			l344.2,84.6c20.9,66.2,48,130.5,80.9,192.2l-153.5,255.8c-20.8,34.6-15.3,78.9,13.2,107.4L600,3649.5
			c28.4,28.4,72.7,33.8,107.4,13.2c0,0,172.1-103.2,256.4-153.6c61,32.5,124.9,59.4,190.7,80.3l84.5,344
			c9.7,39.1,44.9,66.6,85.2,66.6h351.6c40.3,0,75.4-27.5,85.2-66.6l84.5-344c67.7-21.5,132.9-49.2,195-82.8
			c86.6,51.9,260.4,156.2,260.4,156.2c34.6,20.7,78.9,15.4,107.4-13.2l248.6-248.6c28.5-28.5,34-72.8,13.2-107.4l-158-263.2
			c31.2-59.1,57-121,77.2-184.7l344.1-84.6c39.1-9.8,66.6-44.9,66.6-85.2v-351.6C3000,2283.9,2972.5,2248.8,2933.4,2239z
			 M1500,3115.2c-339.2,0-615.2-276-615.2-615.2s276-615.2,615.2-615.2s615.2,276,615.2,615.2S1839.2,3115.2,1500,3115.2z"/>
	</g>
</g>
</svg>
