<?xml version="1.0" encoding="utf-8"?>
<!-- Generator: Adobe Illustrator 18.0.0, SVG Export Plug-In . SVG Version: 6.00 Build 0)  -->
<!DOCTYPE svg PUBLIC "-//W3C//DTD SVG 1.1//EN" "http://www.w3.org/Graphics/SVG/1.1/DTD/svg11.dtd">
<svg version="1.1" id="Capa_1" xmlns="http://www.w3.org/2000/svg" xmlns:xlink="http://www.w3.org/1999/xlink" x="0px" y="0px"
	 viewBox="0 0 3000 5000" enable-background="new 0 0 3000 5000" xml:space="preserve">
<g>
	<g>
		<path fill="#94AEB7" d="M2566.9,2601.5h-232c23.6,64.7,36.6,134.6,36.6,207.4v876.9c0,30.4-5.3,59.5-14.9,86.6h383.6
			c143.3,0,259.8-116.6,259.8-259.8v-478C3000,2795.8,2805.7,2601.5,2566.9,2601.5z"/>
	</g>
</g>
<g>
	<g>
		<path fill="#94AEB7" d="M628.5,2808.9c0-72.8,12.9-142.7,36.6-207.4h-232C194.3,2601.5,0,2795.8,0,3034.6v478
			c0,143.3,116.6,259.8,259.8,259.8h383.6c-9.6-27.1-14.9-56.3-14.9-86.6V2808.9z"/>
	</g>
</g>
<g>
	<g>
		<path fill="#94AEB7" d="M1765.2,2375.9h-530.4c-238.8,0-433.1,194.3-433.1,433.1v876.9c0,47.8,38.8,86.6,86.6,86.6h1223.3
			c47.8,0,86.6-38.8,86.6-86.6v-876.9C2198.3,2570.1,2004,2375.9,1765.2,2375.9z"/>
	</g>
</g>
<g>
	<g>
		<path fill="#94AEB7" d="M1500,1227.6c-287.2,0-520.8,233.6-520.8,520.8c0,194.8,107.5,364.9,266.3,454.2
			c75.3,42.4,162.1,66.6,254.5,66.6c92.4,0,179.2-24.2,254.5-66.6c158.8-89.3,266.3-259.5,266.3-454.2
			C2020.8,1461.2,1787.2,1227.6,1500,1227.6z"/>
	</g>
</g>
<g>
	<g>
		<path fill="#94AEB7" d="M585.5,1713c-214.8,0-389.5,174.7-389.5,389.5S370.7,2492,585.5,2492c54.5,0,106.4-11.3,153.5-31.6
			c81.5-35.1,148.7-97.2,190.2-175c29.2-54.6,45.8-116.9,45.8-183C975,1887.8,800.2,1713,585.5,1713z"/>
	</g>
</g>
<g>
	<g>
		<path fill="#94AEB7" d="M2414.5,1713c-214.8,0-389.5,174.7-389.5,389.5c0,66.1,16.6,128.4,45.8,183
			c41.6,77.8,108.8,139.9,190.2,175c47.1,20.3,99,31.6,153.5,31.6c214.8,0,389.5-174.7,389.5-389.5S2629.3,1713,2414.5,1713z"/>
	</g>
</g>
</svg>
