<?xml version="1.0" encoding="UTF-8"?>
<svg id="Layer_1" xmlns="http://www.w3.org/2000/svg" xmlns:xlink="http://www.w3.org/1999/xlink" viewBox="0 0 510.28 510.28">
  <defs>
    <clipPath id="clippath">
      <rect x="125.82" y="125.82" width="258.65" height="258.65" fill="none"/>
    </clipPath>
  </defs>
  <g>
    <path d="M255.14,507.79c-67.49,0-130.93-26.28-178.65-74C28.77,386.07,2.49,322.63,2.49,255.14S28.77,124.21,76.49,76.49C124.21,28.77,187.66,2.49,255.14,2.49s130.93,26.28,178.65,74c47.72,47.72,74,111.17,74,178.65s-26.28,130.93-74,178.65-111.17,74-178.65,74h0Z" fill="#1e3950"/>
    <path d="M255.14,4.98c33.77,0,66.53,6.61,97.37,19.66,29.79,12.6,56.54,30.64,79.52,53.61,22.98,22.98,41.01,49.73,53.61,79.52,13.04,30.84,19.66,63.6,19.66,97.37s-6.61,66.53-19.66,97.37c-12.6,29.79-30.64,56.54-53.61,79.52-22.98,22.98-49.73,41.01-79.52,53.61-30.84,13.04-63.6,19.66-97.37,19.66s-66.53-6.61-97.37-19.66c-29.79-12.6-56.54-30.64-79.52-53.61-22.98-22.98-41.01-49.73-53.61-79.52-13.04-30.84-19.66-63.6-19.66-97.37s6.61-66.53,19.66-97.37c12.6-29.79,30.64-56.54,53.61-79.52,22.98-22.98,49.73-41.01,79.52-53.61,30.84-13.04,63.6-19.66,97.37-19.66M255.14,0C114.23,0,0,114.23,0,255.14s114.23,255.14,255.14,255.14,255.14-114.23,255.14-255.14S396.05,0,255.14,0h0Z" fill="#1e3950"/>
  </g>
  <g clip-path="url(#clippath)">
    <g>
      <path d="M175.32,288.99v68.2c0,12.28-9.95,22.23-22.23,22.23h0c-12.28,0-22.23-9.95-22.23-22.23v-166.71h22.23" fill="none" stroke="#ffbc33" stroke-linecap="round" stroke-linejoin="round" stroke-width="10.1"/>
      <path d="M153.1,379.41h204.09c12.28,0,22.23-9.95,22.23-22.23v-226.32h-204.09v112.65" fill="none" stroke="#ffbc33" stroke-linecap="round" stroke-linejoin="round" stroke-width="10.1"/>
      <path d="M153.1,352.13v-193.99h22.23" fill="none" stroke="#ffbc33" stroke-linecap="round" stroke-linejoin="round" stroke-width="10.1"/>
      <path d="M355.16,200.58h-155.59v-36.37h155.59v36.37ZM277.37,321.82h-77.8v-96.99h77.8v96.99Z" fill="none" stroke="#ffbc33" stroke-linecap="round" stroke-linejoin="round" stroke-width="10.1"/>
      <path d="M301.62,224.83h53.55" fill="none" stroke="#ffbc33" stroke-linecap="round" stroke-linejoin="round" stroke-width="10.1"/>
      <path d="M301.62,249.08h53.55" fill="none" stroke="#ffbc33" stroke-linecap="round" stroke-linejoin="round" stroke-width="10.1"/>
      <path d="M301.62,273.33h53.55" fill="none" stroke="#ffbc33" stroke-linecap="round" stroke-linejoin="round" stroke-width="10.1"/>
      <path d="M301.62,297.58h53.55" fill="none" stroke="#ffbc33" stroke-linecap="round" stroke-linejoin="round" stroke-width="10.1"/>
      <path d="M301.62,321.82h53.55" fill="none" stroke="#ffbc33" stroke-linecap="round" stroke-linejoin="round" stroke-width="10.1"/>
      <path d="M199.57,346.07h155.59" fill="none" stroke="#ffbc33" stroke-linecap="round" stroke-linejoin="round" stroke-width="10.1"/>
      <path d="M175.58,266.26h0" fill="none" stroke="#ffbc33" stroke-linecap="round" stroke-linejoin="round" stroke-width="10.1"/>
    </g>
  </g>
</svg>