<?xml version="1.0" encoding="UTF-8"?>
<svg id="Layer_1" xmlns="http://www.w3.org/2000/svg" viewBox="0 0 510.28 510.28">
  <g>
    <path d="M255.14,507.79c-67.49,0-130.93-26.28-178.65-74C28.77,386.07,2.49,322.63,2.49,255.14S28.77,124.21,76.49,76.49C124.21,28.77,187.66,2.49,255.14,2.49s130.93,26.28,178.65,74c47.72,47.72,74,111.17,74,178.65s-26.28,130.93-74,178.65-111.17,74-178.65,74h0Z" fill="#1e3950"/>
    <path d="M255.14,4.98c33.77,0,66.53,6.61,97.37,19.66,29.79,12.6,56.54,30.64,79.52,53.61,22.98,22.98,41.01,49.73,53.61,79.52,13.04,30.84,19.66,63.6,19.66,97.37s-6.61,66.53-19.66,97.37c-12.6,29.79-30.64,56.54-53.61,79.52-22.98,22.98-49.73,41.01-79.52,53.61-30.84,13.04-63.6,19.66-97.37,19.66s-66.53-6.61-97.37-19.66c-29.79-12.6-56.54-30.64-79.52-53.61-22.98-22.98-41.01-49.73-53.61-79.52-13.04-30.84-19.66-63.6-19.66-97.37s6.61-66.53,19.66-97.37c12.6-29.79,30.64-56.54,53.61-79.52,22.98-22.98,49.73-41.01,79.52-53.61,30.84-13.04,63.6-19.66,97.37-19.66M255.14,0C114.23,0,0,114.23,0,255.14s114.23,255.14,255.14,255.14,255.14-114.23,255.14-255.14S396.05,0,255.14,0h0Z" fill="#1e3950"/>
  </g>
  <g>
    <path d="M226.36,192.59l21.06,21.01c1.47,1.47,3.91,1.47,5.43,0,1.47-1.47,1.47-3.91,0-5.43l-21.11-21.01c-5.48-5.58-8.47-12.89-8.47-20.7,0-16.29,13.25-29.53,29.53-29.53,12.08,0,22.84,7.26,27.35,18.47.56,1.42,1.98,2.39,3.55,2.39h0c1.57,0,2.94-.96,3.55-2.39,4.52-11.22,15.27-18.47,27.35-18.47,16.29,0,29.53,13.25,29.53,29.53,0,7.82-2.99,15.17-8.47,20.7l-51.97,51.86-19.08-19.08c-1.47-1.47-3.91-1.47-5.43,0-1.47,1.47-1.47,3.91,0,5.43l21.82,21.77c2.23,2.08,3.3,2.08,5.38,0l54.65-54.55.05-.05c6.9-7,10.71-16.24,10.71-26.08,0-20.5-16.7-37.15-37.15-37.15-12.64,0-24.1,6.29-30.91,16.49-6.85-10.2-18.32-16.49-30.96-16.49-20.5,0-37.15,16.65-37.15,37.15-.05,9.84,3.76,19.08,10.71,26.13-.05-.05-.05,0,0,0h.03Z" fill="#ffbc33"/>
    <path d="M292.39,160.98h-15.83c-2.13,0-3.81,1.73-3.81,3.81v12.03h-12.03c-2.13,0-3.81,1.73-3.81,3.81v15.83c0,2.13,1.73,3.81,3.81,3.81h12.03v12.03c0,2.13,1.73,3.81,3.81,3.81h15.83c2.13,0,3.81-1.73,3.81-3.81v-12.03h12.03c2.13,0,3.81-1.73,3.81-3.81v-15.83c0-2.13-1.73-3.81-3.81-3.81h-12.03v-12.03c0-2.13-1.73-3.81-3.81-3.81ZM304.36,184.42v8.17h-12.03c-2.13,0-3.81,1.73-3.81,3.81v12.08h-8.17v-12.03c0-2.13-1.73-3.81-3.81-3.81h-12.03v-8.17h12.03c2.13,0,3.81-1.73,3.81-3.81v-12.08h8.17v12.03c0,2.13,1.73,3.81,3.81,3.81h12.03Z" fill="#ffbc33"/>
    <path d="M372.52,255.32c-4.26-6.75-12.43-8.98-19.13-5.13l-48.87,28.22c-1.62-5.99-7.05-10.4-13.55-10.4h-23.34c-9.44-4.01-19.64-7.87-29.99-7.87-13.6,0-26.59,6.09-37.45,17.66-4.47,4.72-7.71,9.44-9.74,12.79l-7.51-7.51c-1.83-1.47-3.6-1.47-5.43,0l-8.07,8.12-4.16-4.21c-1.47-1.47-3.91-1.47-5.43,0l-22.84,22.84c-1.47,1.47-1.47,3.91,0,5.43l14.41,14.41c1.47,1.47,3.91,1.47,5.43,0,1.52-1.47,1.47-3.91,0-5.43l-11.72-11.72,17.41-17.41,67.34,67.39-17.41,17.41-43.85-43.9c-1.47-1.47-3.91-1.47-5.43,0s-1.47,3.91,0,5.43l46.54,46.59c.71.71,1.67,1.12,2.69,1.12h0c1.01,0,1.98-.41,2.69-1.12l22.84-22.84c1.47-1.47,1.47-3.91,0-5.43l-8.07-8.07,8.17-8.17c1.47-1.47,1.47-3.91,0-5.43l-7.46-7.46h21.72c2.13,0,3.81-1.73,3.81-3.81s-1.73-3.81-3.81-3.81h-29.38l-26.9-26.9c4.11-7.16,18.27-28.37,41.56-28.37,9.64,0,19.13,3.91,27.91,7.61.46.15.91.25,1.37.25h24.05c7.87,0,9.59,12.43,0,12.69h-46.18c-2.13,0-3.81,1.73-3.81,3.81s1.73,3.81,3.81,3.81h46.18c5.63,0,10.61-3.3,12.84-8.37l53.39-30.85c5.84-3.4,13.7,5.43,5.94,11.32l-64.45,50.39c-3.76,2.94-8.47,4.57-13.25,4.57h-16.39c-2.13,0-3.81,1.73-3.81,3.81s1.73,3.81,3.81,3.81h16.39c6.5,0,12.89-2.18,17.96-6.19l64.25-50.24c6.65-4.92,8.68-12.33,4.92-18.83h0ZM224.54,346.31l-49.73-49.73,5.43-5.43,49.73,49.73-5.43,5.43Z" fill="#ffbc33"/>
  </g>
</svg>