<?xml version="1.0" encoding="UTF-8"?>
<svg id="Layer_1" xmlns="http://www.w3.org/2000/svg" viewBox="0 0 510.28 510.28">
  <g>
    <path d="M255.14,507.79c-67.49,0-130.93-26.28-178.65-74C28.77,386.07,2.49,322.63,2.49,255.14S28.77,124.21,76.49,76.49C124.21,28.77,187.66,2.49,255.14,2.49s130.93,26.28,178.65,74c47.72,47.72,74,111.17,74,178.65s-26.28,130.93-74,178.65-111.17,74-178.65,74h0Z" fill="#1e3950"/>
    <path d="M255.14,4.98c33.77,0,66.53,6.61,97.37,19.66,29.79,12.6,56.54,30.64,79.52,53.61,22.98,22.98,41.01,49.73,53.61,79.52,13.04,30.84,19.66,63.6,19.66,97.37s-6.61,66.53-19.66,97.37c-12.6,29.79-30.64,56.54-53.61,79.52-22.98,22.98-49.73,41.01-79.52,53.61-30.84,13.04-63.6,19.66-97.37,19.66s-66.53-6.61-97.37-19.66c-29.79-12.6-56.54-30.64-79.52-53.61-22.98-22.98-41.01-49.73-53.61-79.52-13.04-30.84-19.66-63.6-19.66-97.37s6.61-66.53,19.66-97.37c12.6-29.79,30.64-56.54,53.61-79.52,22.98-22.98,49.73-41.01,79.52-53.61,30.84-13.04,63.6-19.66,97.37-19.66M255.14,0C114.23,0,0,114.23,0,255.14s114.23,255.14,255.14,255.14,255.14-114.23,255.14-255.14S396.05,0,255.14,0h0Z" fill="#1e3950"/>
  </g>
  <g>
    <path d="M391.12,208.34l-133.71-81.95c-1.4-.86-3.13-.86-4.53,0l-133.71,81.95c-1.99,1.24-2.64,3.88-1.46,5.88l12.94,21.57c1.24,2.05,3.88,2.7,5.93,1.46h0l10.67-6.47v123.57c0,16.66,13.53,30.19,30.19,30.19h60.38c2.37,0,4.31-1.94,4.31-4.31s-1.94-4.31-4.31-4.31h-60.33c-11.91,0-21.57-9.65-21.57-21.57v-128.8l99.2-60.22,99.2,60.22v128.8c0,11.91-9.65,21.57-21.57,21.57h-60.38c-2.37,0-4.31,1.94-4.31,4.31s1.94,4.31,4.31,4.31h60.38c16.66,0,30.19-13.53,30.19-30.19v-123.57l10.67,6.47c.65.43,1.46.65,2.26.65.32,0,.7-.05,1.02-.11,1.13-.27,2.05-.97,2.64-1.94l12.94-21.57c1.24-2.05.59-4.69-1.4-5.93h.05ZM374.46,227.65l-117.05-71.06c-1.4-.81-3.13-.81-4.47,0l-103.51,62.86h0l-13.59,8.19-8.52-14.18,127.83-78.34,127.83,78.34-8.52,14.18h0Z" fill="#ffbc33"/>
    <path d="M329.5,294.12c5.01-11.32,7.6-23.56,7.6-35.91.05-12.02-4.47-23.61-12.62-32.46-7.76-8.68-18.87-13.64-30.52-13.69-11.48.22-22.37,5.18-30.08,13.69l-8.73,6.69-8.73-6.74c-3.83-4.1-8.46-7.49-13.53-9.92-5.18-2.48-10.84-3.72-16.55-3.77-11.65.05-22.7,5.07-30.52,13.69-8.14,8.84-12.67,20.43-12.62,32.46-.22,24.8,10.41,48.47,29.11,64.8l50.03,43.24c1.62,1.4,3.99,1.4,5.61,0l50.03-43.24c9.17-7.93,16.5-17.79,21.51-28.84h0ZM255.15,357.25l-47.23-40.76c-16.77-14.72-26.31-35.96-26.09-58.28-.05-9.87,3.67-19.36,10.35-26.63,6.15-6.9,14.93-10.89,24.15-10.94,4.47,0,8.84,1.02,12.89,2.97,4.21,1.99,7.98,4.8,11.11,8.19.16.16,12.18,9.49,12.18,9.49,1.56,1.19,3.72,1.19,5.28,0,0,0,12.02-9.33,12.18-9.49,6.09-6.9,14.83-10.94,23.99-11.16,9.22.11,18.01,4.04,24.15,10.94,6.69,7.22,10.35,16.77,10.35,26.63,0,11.16-2.32,22.16-6.85,32.4-4.47,9.92-11.05,18.76-19.25,25.93l-47.23,40.7h.02Z" fill="#ffbc33"/>
    <path d="M289.65,272.39h-17.25v-17.31c0-2.37-1.94-4.31-4.31-4.31h-25.88c-2.37,0-4.31,1.94-4.31,4.31v17.31h-17.25c-2.37,0-4.31,1.94-4.31,4.31v25.88c0,2.37,1.94,4.31,4.31,4.31h17.25v17.25c0,2.37,1.94,4.31,4.31,4.31h25.88c2.37,0,4.31-1.94,4.31-4.31v-17.25h17.25c2.37,0,4.31-1.94,4.31-4.31v-25.88c0-2.37-1.94-4.31-4.31-4.31ZM285.34,298.27h-17.25c-2.37,0-4.31,1.94-4.31,4.31v17.25h-17.25v-17.25c0-2.37-1.94-4.31-4.31-4.31h-17.25v-17.25h17.25c2.37,0,4.31-1.94,4.31-4.31v-17.31h17.25v17.31c0,2.37,1.94,4.31,4.31,4.31h17.25v17.25Z" fill="#ffbc33"/>
  </g>
</svg>