<svg version="1.2" xmlns="http://www.w3.org/2000/svg" viewBox="0 0 256 257" width="256" height="257"><title>schedule - planning 3</title><style>.s0{fill:none;stroke:#04a69c;stroke-linecap:round;stroke-linejoin:round;stroke-width:8}.s1{fill:#04a69c}</style><g id="schedule - planning 3"><path id="&amp;lt;Path&amp;gt;" class="s0" d="M132 188.2c0 35.4-28.7 64-64 64s-64-28.6-64-64c0-35.3 28.7-64 64-64s64 28.7 64 64z"/><path id="&amp;lt;Path&amp;gt;" class="s0" d="M92 188.2H68v-40"/><g id="&amp;lt;Group&amp;gt;"><path id="&amp;lt;Path&amp;gt;" class="s0" d="M20 124.2v-72h232v116l-44 44h-64"/><path id="&amp;lt;Path&amp;gt;" class="s1" d="M60 88.2c0 2.2-1.8 4-4 4s-4-1.8-4-4 1.8-4 4-4 4 1.8 4 4zM100 88.2c0 2.2-1.8 4-4 4s-4-1.8-4-4 1.8-4 4-4 4 1.8 4 4zM140 88.2c0 2.2-1.8 4-4 4s-4-1.8-4-4 1.8-4 4-4 4 1.8 4 4zM180 88.2c0 2.2-1.8 4-4 4s-4-1.8-4-4 1.8-4 4-4 4 1.8 4 4zM220 88.2c0 2.2-1.8 4-4 4s-4-1.8-4-4 1.8-4 4-4 4 1.8 4 4zM140 132.2c0 2.2-1.8 4-4 4s-4-1.8-4-4 1.8-4 4-4 4 1.8 4 4zM180 132.2c0 2.2-1.8 4-4 4s-4-1.8-4-4 1.8-4 4-4 4 1.8 4 4zM180 176.2c0 2.2-1.8 4-4 4s-4-1.8-4-4 1.8-4 4-4 4 1.8 4 4zM220 132.2c0 2.2-1.8 4-4 4s-4-1.8-4-4 1.8-4 4-4 4 1.8 4 4z"/><path id="&amp;lt;Path&amp;gt;" class="s0" d="M208 212.2v-44h44M84 28.2c0 4.5-3.6 8-8 8s-8-3.5-8-8v-16c0-4.4 3.6-8 8-8s8 3.6 8 8zM204 28.2c0 4.5-3.6 8-8 8s-8-3.5-8-8v-16c0-4.4 3.6-8 8-8s8 3.6 8 8zM220 20.2h16c8.8 0 16 3.2 16 12v24M100 20.2h72M20 56.2v-20c0-8.8 7.2-16 16-16h16"/></g></g></svg>