<svg version="1.2" xmlns="http://www.w3.org/2000/svg" viewBox="0 0 256 257" width="256" height="257"><title>pin</title><style>.s0{fill:none;stroke:#04a69c;stroke-linecap:round;stroke-linejoin:round;stroke-width:8}</style><g id="pin"><path id="&amp;lt;Path&amp;gt;" class="s0" d="M75.6 176C33.3 182.3 4 196.2 4 212.2c0 22.1 55.5 40 124 40s124-17.9 124-40c0-16.1-29.5-29.9-72-36.3"/><g id="&amp;lt;Group&amp;gt;"><path id="&amp;lt;Path&amp;gt;" class="s0" d="M189.2 135.9c14.6-18.2 21.6-41.9 17.6-65-2.8-15.7-10.2-30.7-22.2-42.9-31.2-31.7-81.9-31.7-113.2 0-12 12.1-19.4 27.2-22.2 42.9-4 23.1 3 46.8 17.6 65l61.2 76.3z"/><path id="&amp;lt;Path&amp;gt;" class="s0" d="M176 84.2c0 26.5-21.5 48-48 48s-48-21.5-48-48 21.5-48 48-48 48 21.5 48 48z"/></g></g></svg>