<svg width="25" height="24" viewBox="0 0 25 24" fill="none" xmlns="http://www.w3.org/2000/svg"><path opacity=".24" d="M2.5 10a4 4 0 0 1 4-4h12a4 4 0 0 1 4 4v8a4 4 0 0 1-4 4h-12a4 4 0 0 1-4-4v-8z" fill="url(#a)"/><path d="M18.5 6h-12m12 0a4 4 0 0 1 4 4v8a4 4 0 0 1-4 4h-12a4 4 0 0 1-4-4v-8a4 4 0 0 1 4-4m12 0a2 2 0 0 1-2-2 2 2 0 0 0-2-2h-4a2 2 0 0 0-2 2 2 2 0 0 1-2 2" stroke="url(#b)" stroke-width="2" stroke-linecap="round" stroke-linejoin="round"/><defs><linearGradient id="a" x1="22.4" y1="2.085" x2="2.017" y2="22.841" gradientUnits="userSpaceOnUse"><stop stop-color="#37D4EE"/><stop offset=".75" stop-color="#236EDE"/></linearGradient><linearGradient id="b" x1="22.4" y1="2.085" x2="2.017" y2="22.841" gradientUnits="userSpaceOnUse"><stop stop-color="#37D4EE"/><stop offset=".75" stop-color="#236EDE"/></linearGradient></defs></svg>