<svg width="54" height="54" viewBox="0 0 54 54" fill="none" xmlns="http://www.w3.org/2000/svg"><circle cx="27" cy="27" r="27" fill="#E8FEFF"/><path opacity=".24" d="M24.258 17.726a5.543 5.543 0 0 1 5.484 0l4.016 2.29A5.408 5.408 0 0 1 36.5 24.71v4.58a5.408 5.408 0 0 1-2.742 4.694l-4.016 2.29a5.543 5.543 0 0 1-5.484 0l-4.016-2.29A5.408 5.408 0 0 1 17.5 29.29v-4.58a5.408 5.408 0 0 1 2.742-4.694l4.016-2.29z" fill="url(#a)"/><path d="M24.258 17.726a5.543 5.543 0 0 1 5.484 0l4.016 2.29A5.408 5.408 0 0 1 36.5 24.71v4.58a5.408 5.408 0 0 1-2.742 4.694l-4.016 2.29a5.543 5.543 0 0 1-5.484 0l-4.016-2.29A5.408 5.408 0 0 1 17.5 29.29v-4.58a5.408 5.408 0 0 1 2.742-4.694l4.016-2.29z" stroke="url(#b)" stroke-width="2" stroke-linecap="round" stroke-linejoin="round"/><defs><linearGradient id="a" x1="36.405" y1="17.085" x2="16.03" y2="36.796" gradientUnits="userSpaceOnUse"><stop stop-color="#37D4EE"/><stop offset=".75" stop-color="#236EDE"/></linearGradient><linearGradient id="b" x1="36.405" y1="17.085" x2="16.03" y2="36.796" gradientUnits="userSpaceOnUse"><stop stop-color="#37D4EE"/><stop offset=".75" stop-color="#236EDE"/></linearGradient></defs></svg>