<svg xmlns="http://www.w3.org/2000/svg" width="512" height="512" viewBox="0 0 512.001 512.001"><circle r="256" cx="256" cy="256" fill="#e1f7ff"/><path d="M405.141 76.8h-280c-11.58 0-21 9.421-21 21v214.123c0 11.58 9.42 21 21 21h31.089L93.497 391.77c-4.814 4.517-7.525 10.715-7.632 17.453-.11 6.901 2.613 13.646 7.472 18.505 4.856 4.858 11.612 7.583 18.504 7.471 6.74-.107 12.938-2.817 17.454-7.631l78.524-83.708c38.16 26.371 95.867 21.137 128.639-10.937h68.685c11.58 0 21-9.42 21-21V97.8c-.002-11.579-9.422-21-21.002-21zM119.083 417.988c-1.9 2.025-4.55 3.165-7.466 3.212-3.124.05-6.188-1.18-8.38-3.372-2.195-2.194-3.425-5.25-3.375-8.382.047-2.914 1.188-5.565 3.213-7.465l62.053-58.209 12.165 12.165zm67.793-72.269l-11.531-11.531 10.338-9.698a105.876 105.876 0 0 0 10.891 10.891zm-12.735-89.796c0-50.178 40.822-91 91-91 120.558 4.575 120.526 177.444-.001 182.001-50.177 0-90.999-40.823-90.999-91zm231 63h-56.05c51.921-67.37 1.82-168.793-83.951-167.999-82.552-.805-133.587 94.231-87.934 162.322l-6.052 5.677h-46.013c-3.86 0-7-3.14-7-7V132.8h115.497c9.278-.344 9.271-13.659 0-14H118.141v-21c0-3.86 3.14-7 7-7h280c3.86 0 7 3.14 7 7v21H296.638c-9.277.345-9.27 13.66 0 14h115.503v179.123c0 3.86-3.14 7-7 7z" fill="#ffbc33" data-original="#000000"/><path d="M265.141 118.8h-.005a6.998 6.998 0 0 0-6.998 7c.345 9.274 13.661 9.275 14.003 0a7 7 0 0 0-7-7zm51.662 107.733L294.53 204.26c-2.607-2.712-7.293-2.711-9.9 0l-19.49 19.49-19.49-19.49c-2.607-2.711-7.292-2.711-9.9 0l-22.273 22.274a7.001 7.001 0 0 0 0 9.9l19.49 19.49-19.49 19.489a7.001 7.001 0 0 0 0 9.9l22.273 22.273c2.608 2.712 7.293 2.712 9.9 0l19.49-19.49 19.49 19.49c2.607 2.712 7.293 2.712 9.9 0l22.273-22.272a7.001 7.001 0 0 0 0-9.9l-19.489-19.49 19.49-19.49a7.001 7.001 0 0 0 0-9.9zm-34.338 24.44a7.001 7.001 0 0 0 0 9.9l19.49 19.49-12.375 12.374-19.49-19.49c-2.607-2.711-7.293-2.711-9.9 0l-19.49 19.49-12.373-12.375 19.49-19.49a7.001 7.001 0 0 0 0-9.9l-19.49-19.49 12.374-12.374 19.49 19.49c2.606 2.712 7.292 2.712 9.9 0l19.49-19.49 12.373 12.374z" fill="#ffbc33" data-original="#000000"/></svg>